<?xml version="1.0" encoding="UTF-8"?><svg id="a" xmlns="http://www.w3.org/2000/svg" viewBox="0 0 1668 2388"><defs><style>.b{fill:#fff;}.c{font-size:61px;}.c,.d{font-family:TimesNewRomanPSMT, Times New Roman;}.e{fill:#e42129;}.f{letter-spacing:-.07em;}.g{letter-spacing:.34em;}.h{fill:#7d4296;}.d{font-size:117px;}.i{fill:none;}.j{fill:#516a7d;}.k{letter-spacing:-.1em;}.l{letter-spacing:-.04em;}.m{letter-spacing:-.18em;}</style></defs><rect class="b" x="-32.64" y="-34.41" width="1722.35" height="1954.35"/><path d="M1665.46,852.27c-3.39,10.94-7.96,21.36-13.58,31.11-26.47,45.87-76.02,76.75-132.79,76.75H158.79c-.73-.04-1.47-.06-2.21-.08-1.85-.07-3.71-.11-5.57-.11-76.24,0-139.47,55.7-151.23,128.62L0,2388H1668V852.27h-2.54Z"/><text class="d" transform="translate(194.81 241.53)"><tspan x="0" y="0">My </tspan><tspan class="e" x="191.78" y="0">excellent</tspan><tspan x="614.02" y="0" xml:space="preserve"> moment</tspan></text><text class="c" transform="translate(194.81 414.83)"><tspan x="0" y="0">1) Press the record button to start recording</tspan><tspan x="0" y="120">2)</tspan><tspan class="l" x="50.81" y="120"> </tspan><tspan class="k" x="63.8" y="120">Y</tspan><tspan x="101.75" y="120">ou have 60 seconds to tell your story</tspan><tspan x="0" y="240">3) Playback the recording. If you are happy </tspan><tspan class="m" x="1075.57" y="240">	</tspan><tspan class="g" x="0" y="312">	</tspan><tspan x="36" y="312" xml:space="preserve">  with it, click ‘upload’. If not, press     </tspan><tspan x="0" y="384" xml:space="preserve">    ‘delete</tspan><tspan class="f" x="226.93" y="384">’</tspan><tspan x="242.72" y="384" xml:space="preserve"> and record again.</tspan></text><g><circle class="h" cx="1452.35" cy="757.52" r="153.08"/><g><path class="i" d="M1439.57,930.53c.06,4.2,.14,8.4,.22,12.61l.12,6.77c.04,2.19,.09,4.38,.15,6.57l.03,1.31v.39c0,.21-.01,.42,.02,.62,.01,.17,.02,.38,.32,.38h.01c.32,0,.32-.22,.32-.29l-.16-28.85c-.35-.03-.7-.05-1.05-.08,0,.2,0,.39,0,.58Z"/><path class="i" d="M1475.7,987.06c2.67-.48,5.31-1.02,7.92-1.62-20.34,2.89-41.84,3.41-64.11,1.54-10.76-.9-20.68-2.49-29.49-4.73-3.04-.77-6.47-1.71-10.06-2.93,7.66,3.3,15.34,5.22,21.32,6.49,13.72,2.92,28.28,4.28,43.35,3.99,11.76-.21,21.92-1.11,31.07-2.75Z"/><path class="i" d="M1431.26,931.46v-2.39c-3.58-.47-7.13-1.06-10.63-1.77,.16,1.57,.4,3.17,.78,4.84,3.24-.29,6.55-.52,9.85-.69Z"/><path class="j" d="M1436.32,650.85l-1.98,7.03,.24-5.02-.4,3.14c-.1,.78-.22,1.56-.33,2.33-.06,.4-.12,.79-.18,1.19,1.14-.49,2.3-.94,3.44-1.35,2.86-1.02,5.61-1.88,8.27-2.57l.45-6.37c.23-3.2,1-6.04,2.3-8.47-1.69,.3-3.41,.65-5.14,1.03-3.08,1.59-5.51,4.89-6.69,9.07Z"/><path class="j" d="M1414.28,685.73c-4.44,1.73-8.44,3.42-12.16,5.14-.16,.89-.32,1.77-.48,2.66,3.74-.31,7.55-.51,11.59-.59,.35-2.58,.69-4.96,1.06-7.21Z"/><path class="j" d="M1402.85,723.34c2.41,.11,4.8,.3,6.93,.49,.17-2.51,.37-5.04,.61-7.56-4.85,1.31-9.25,2.73-13.4,4.31-.15,.93-.3,1.87-.44,2.8,1.2-.04,2.49-.08,3.82-.08,.82,0,1.65,.01,2.48,.04Z"/><path class="j" d="M1427.7,703.2c-.1,0-.21-.02-.32-.03-.36,2.63-.74,5.25-1.13,7.88,2.02-.68,4.33-1.28,7.1-1.85,6.86-1.42,14.08-1.8,20.87-1.1,1.28,.13,2.54,.31,3.83,.55h0l.84,.08c.12,.02,.28,.04,.48,.07,2.03,.25,4.03,.63,6.13,1.19,4.5,1.12,8.79,2.92,12.82,4.91-2.61-1.94-5.3-3.73-8.17-5.28h0l-.16-.09h0c-3.69-1.96-7.19-3.44-10.69-4.51l-.67-.21v-.08c-2.64-.42-5.39-.56-8.06-.69l-.91-.05c-4.65-.24-9.38-.38-13.96-.5l-4.18-.12c-1.28-.04-2.56-.08-3.84-.16Z"/><path class="j" d="M1411.9,703.22c.27-2.1,.54-4.19,.81-6.28l.13-1c-4.5,1.57-8.6,3.16-12.47,4.85l-.47,2.72c3.86-.23,7.81-.33,12.01-.29Z"/><path class="j" d="M1432.95,671.55c-.73,.07-1.3,.1-1.77,.11-.3,2.58-.6,5.17-.9,7.76v.07c.76-.33,1.57-.58,2.31-.82l.32-.1c3.01-.98,6.1-1.81,9.17-2.45,6.98-1.45,13.3-1.9,18.79-1.32,.42,.04,.84,.1,1.26,.16v-.06l.91,.12c.46,.1,.93,.18,1.34,.22,1.86,.13,3.72,.68,5.51,1.21l.19,.06c4.44,1.31,8.61,3.28,12.48,5.42-2.45-2.02-5.04-3.94-7.81-5.61l.18-.3-.27,.25-.47-.28c-1.94-1.14-3.95-2.32-6.06-3.15-1.42-.56-2.98-1.08-4.9-1.64l-.49-.14c-.66-.06-1.34-.09-2-.11l-1.01-.05c-3.6-.19-7.29-.08-10.43,.05l-.76,.03c-3.43,.15-6.87,.29-10.3,.4-1.61,.05-3.22,.09-4.83,.13-.09,0-.26,.02-.47,.04Z"/><path class="j" d="M1429.97,682.1c-.3,2.63-.61,5.26-.92,7.89,.35-.14,.69-.27,.96-.36,2.95-1.01,6.04-1.84,9.2-2.46,6.93-1.37,13.51-1.79,19.57-1.26,.67,.06,1.35,.15,2.11,.27v-.08l.98,.13c.47,.12,.94,.21,1.12,.24,2,.32,3.94,.74,5.93,1.31,4.29,1.22,8.32,3.04,12.27,5.16-2.6-2.08-5.18-3.9-7.94-5.51l.19-.33-.28,.27-.11-.06h0c-3.82-2.16-7.33-3.69-11.05-4.81l-.53-.16c-.18-.01-.36-.02-.54-.03-.69-.04-1.4-.08-2.1-.2-3.27-.2-6.54-.21-9.31-.21-2.62,0-5.24,.06-7.86,.12-3.6,.08-7.32,.16-10.99,.1-.24,0-.47,0-.67,0Z"/><path class="j" d="M1447.47,649.51l-1.7,5.99c3.69-.94,7.22-1.57,10.64-1.91l.17-5.77c.1-3.18,1.07-6.11,2.84-8.55-.95,.07-1.86,.15-2.76,.24-.31,.03-.62,.07-.93,.11l-.59,.07c-4.73,1.69-6.83,6.87-7.67,9.81Z"/><path class="j" d="M1433.37,661.86c-.34,2.73-.67,5.46-1,8.19,.64-.29,1.26-.56,1.35-.6,1.38-.54,2.76-.99,4.17-1.44,2.96-.94,6.13-1.72,9.69-2.4,4.47-.84,8.37-1.25,11.9-1.25,1.85,0,3.6,.11,5.29,.34,.37,.05,.73,.11,1.09,.18l.2,.04c4.76,.62,9.12,1.92,12.91,3.85,1.88,.89,3.78,1.89,5.75,3.02-1.85-1.56-3.67-3-5.53-4.34-3.96-2.87-8.38-5.01-13.5-6.54-6.32-.56-12.77-.1-19,.34-4.36,.31-8.84,.64-13.32,.6Z"/><path class="j" d="M1458.21,648.06l-1.43,5.5c.14-.01,.27-.02,.4-.04,2.71-.23,6.02-.5,9.06-.11,.41-1.98,.84-3.78,1.28-5.35,1.79-6.35,5.42-7.26,9.45-6.81-1.95-.83-3.8-1.4-5.62-1.75-1.18-.21-2.58-.35-4.25-.41-4.43,1.01-7.66,4.28-8.89,8.98Z"/><path class="j" d="M1429.05,692.66h-.19s-.09,0-.13,0c-.32,2.61-.65,5.21-.99,7.82,2.23-.79,4.71-1.47,7.74-2.12,6.79-1.45,13.67-1.92,20.45-1.39,1.37,.11,2.77,.3,4.19,.59l.46-.02,.04,.03c.25,.03,.5,.06,.74,.1l.34,.05c2.1,.39,3.82,.71,5.62,1.2,4.32,1.11,8.42,2.91,12.38,4.96-2.52-1.94-5.18-3.77-8.03-5.37h0l-.13-.07h0c-3.76-2.07-7.2-3.54-10.81-4.65l-.67-.21v-.1c-2.64-.42-5.48-.47-8.23-.53l-1.81-.04c-3.06-.08-6.13-.09-9.2-.1-3.13-.01-6.26-.02-9.39-.1-.79,0-1.59-.02-2.4-.05Z"/><path class="j" d="M1461.74,819.38c-1.72-1.95-2.78-4.64-2.87-7.38-.1-3,.82-5.88,2.59-8.09,.89-1.12,1.94-2.04,3.23-2.81-1.4,.34-2.52,1.01-3.34,1.66-2.55,2.01-4.19,5.37-4.29,8.79,.25,3.51,1.41,6.19,3.56,8.12,1.2,1.07,2.57,1.81,4.01,2.17-1.03-.62-2.03-1.41-2.88-2.46Z"/><path class="j" d="M1405.1,766.2c2.14,4.19,5.57,8.13,9.91,11.4,1.21,.91,2.48,1.77,3.85,2.6-7.76-8.15-11.41-19.64-9.57-30.42l1.65,.16c-.06,2.92,.11,5.12,.55,7.14,2.25,10.26,9.28,19.36,18.98,24.7-8.36-8.54-12.54-21.24-10.69-32.68l1.65,.14c-.04,2.86,.18,5.21,.67,7.37,.98,4.31,3.03,10.52,7.24,15.6l.3,.37c1.53,1.85,3.11,3.77,4.96,5.23,2.08,1.65,4.03,3.03,6.13,4.35,.27,.17,.55,.34,.84,.5-4.17-4.56-7.41-10.22-9.43-16.48-2.11-6.53-2.74-12.52-1.87-17.79l1.64,.18c-.26,4.94,.91,10.4,3.5,16.21,2.73,6.14,6.73,11.39,11.55,15.17,1.44,1.13,2.94,2.12,4.54,3-4.13-4.81-7.22-10.6-9.19-17.23-2.08-7.02-2.58-12.92-1.55-18.04l1.64,.19c-.16,4.73,1.22,9.33,2.44,12.81,1.82,5.18,4.4,9.94,7.66,14.15,3.4,4.39,7.59,7.8,12.12,9.88,1.78,.82,3.63,1.49,5.51,2.01-6.59-4.47-13.53-11.45-15.57-19.48-1.66-6.53-1.95-13.74-.95-23.39l.08-.82,.82,.08c1.49,.15,3,.36,4.47,.63l.71,.13-.07,1.72c-.17,3.89-.34,7.91-.2,11.86,.03,1,.1,1.95,.19,2.84,.03-.92,.1-1.89,.2-2.91,.41-3.96,1.14-7.93,1.85-11.76l.23-1.26,.86,.22c4.21,1.06,8.33,2.57,12.31,4.23-1.72-1.14-3.48-2.24-5.27-3.26-5.04-2.86-9.92-4.93-14.92-6.32l-.83-.21c-5.16-.87-10.66-1.59-17.3-2.25-1.75-.17-3.52-.31-5.28-.45-2.6-.2-5.28-.42-7.93-.74-.35,2.48-.58,4.44-.74,6.29h-1.65c-.2-2.09-.31-4.01-.32-5.87-.09-13.49,1.71-27.17,3.46-40.39l.28-2.16c1.54-11.7,3.56-25.23,8.04-37.84l2.2-6.17c.22-2.14,.79-4.19,1.67-6.06-1.63,.44-3.17,.89-4.66,1.37-3.09,2.1-4.95,6.19-5.96,9.26l-1.01,3.04,.12,.04-.12,.64c-.26,1.34-.52,2.69-.77,4.04-1.84,10.02-3.12,20.29-4.37,30.22-.5,3.99-1,7.99-1.54,11.98-.99,7.34-2.13,14.71-3.21,21.58l-.44,2.76c-.77,4.77-1.56,9.71-2.01,14.59h-1.65c-.19-1.99-.29-3.66-.32-5.25,0-.12,0-.24,0-.36-2.62,.46-5.19,.95-7.71,1.55-2.34,.57-4.61,1.28-7.25,2.16-.52,6.12-.85,13.2,.38,19.87,.7,3.59,1.85,6.59,3.41,8.91,.94,1.42,1.83,2.58,3.06,4.01,1.29,1.43,2.42,2.56,3.55,3.52,.88,.78,1.81,1.52,2.79,2.24-2.98-3.26-5.34-6.93-6.93-10.78-2.43-5.86-3-12.26-1.71-19.01l1.64,.19c-.22,6.07,.88,11.39,3.36,16.25Z"/><path class="j" d="M1492.27,684.89c-.56,4.69-1.13,9.36-1.7,13.96l-.31,2.48c-.39,3.21-.78,6.42-1.17,9.63-1.18,9.82-2.4,19.94-3.85,29.93,1.08-5.43,2.04-11.27,2.92-17.73,2-14.61,3.32-26.92,4.11-38.28Z"/><path class="j" d="M1416.26,675.32c-4.51,1.93-8.52,3.76-12.21,5.57-.18,.88-.36,1.77-.54,2.66,3.61-.38,7.32-.67,11.29-.88,.45-2.58,.93-5,1.45-7.35Z"/><path class="j" d="M1440.19,821.63c-.35,6.16-.56,12.83-.64,20.21-.1,10.05-.14,20.09-.18,30.14-.02,4.85-.04,9.69-.06,14.54-.07,12.95,.02,26.78,.26,43.43,.35,.03,.7,.05,1.05,.08l-.13-24.63c-.14-26.65-.28-55.02-.29-83.76Z"/><path class="j" d="M1409.72,664.23c3.42-.5,7.08-.97,11.34-1.47,.72-2.13,1.49-4.2,2.29-6.15l.54,.16,.32-3.11c.25-2.44,.79-4.75,1.58-6.78-.75,.3-1.5,.61-2.22,.93l-.39,.19c-3.87,2.8-5.86,7.58-6.69,10.17l-1.61-.34c.19-1.76,.56-3.49,1.07-5.12-1.56,1.78-2.99,4.03-4.24,6.69-.69,1.48-1.34,3.08-1.98,4.85Z"/><path class="j" d="M1409.41,734.26c0-2.61,.09-5.27,.22-7.93-2.29,.5-4.29,.95-6.28,1.49-2.69,.73-5.39,1.69-7.81,2.57-.13,.98-.26,1.97-.38,2.95,.59,0,1.16-.01,1.7-.01,1.65,0,3.08,.04,4.44,.12,2.82,.19,5.62,.51,8.1,.82Z"/><path class="j" d="M1416.95,672.34c.66-2.73,1.39-5.38,2.17-7.89-4.84,2.26-8.93,4.27-12.73,6.23-.25,.94-.48,1.88-.71,2.83,3.52-.44,7.23-.83,11.27-1.17Z"/><path class="j" d="M1411.53,706.12c-4.64,1.44-8.87,2.94-12.88,4.57l-.47,2.79c1.87-.07,3.75-.11,5.67-.11,2.22,0,4.49,.05,6.83,.15,.26-2.47,.55-4.93,.85-7.4Z"/><path class="j" d="M1500.24,709.58c-.2,1.58-.39,3.16-.58,4.75l.5,.3c.36-3.23,.7-6.48,1.01-9.77l-.29-.38c-.21,1.71-.42,3.41-.64,5.1Z"/><path class="j" d="M1426.3,713.74c-.05,0-.32-.02-.64-.07-.4,2.66-.82,5.33-1.24,7.99,.02,0,.04,0,.06-.01,.14-.03,.25-.06,.32-.07l.19-.06c1.26-.38,2.56-.78,3.88-1.03,3.21-.7,6.13-1.16,8.92-1.41,5.95-.53,11.72-.38,17.14,.45,.83,.12,1.64,.28,2.46,.45h.1c.17,0,.32,0,.41,0,1.77,.2,3.6,.54,5.61,1.05,4.65,1.12,9.1,2.9,13.28,4.86-2.65-1.9-5.45-3.72-8.41-5.25h-.02c-3.91-2.03-7.41-3.47-11.01-4.54l-.72-.21v-.06c-2.45-.39-5-.58-7.47-.77l-1.64-.12c-4.59-.36-9.27-.59-13.8-.81l-3.89-.19c-1.17-.06-2.35-.11-3.52-.21Z"/><path class="j" d="M1501.89,696.11c-.3,2.58-.62,5.15-.93,7.7l.28,.18c.24-2.62,.46-5.24,.65-7.88Z"/><path class="j" d="M1497.49,736.24l-.42-.54c-.43,3.41-.87,6.84-1.34,10.25l.3,.15c.56-3.28,1.02-6.58,1.45-9.86Z"/><path class="j" d="M1498.08,731.6l.34-2.65c.13-1.01,.26-2.03,.39-3.05l-.46-.61c-.4,3.35-.81,6.74-1.23,10.14l.45,.25c.18-1.36,.35-2.72,.52-4.08Z"/><path class="j" d="M1494.84,752.28c.43-1.96,.81-3.95,1.15-5.94l-.26-.34c-.29,2.1-.58,4.19-.89,6.27Z"/><path class="e" d="M1473.14,648.15c.41-.53,.88-1,1.44-1.38-.56,.34-1.04,.82-1.44,1.38Z"/><path class="j" d="M1445.88,799.05c.49,4.53,1,9.22,1.77,13.85,.38,2.3,.9,4.43,1.58,6.43-.33-1.97-.46-3.95-.58-5.96-.11-4.73,.1-9.49,.31-14.1l.06-.79c.15-3.11,.31-6.08,.43-8.1h-21.35l-.29,6.11c-.35,4.76-.66,9.04-.82,13.4-.07,1.9-.12,4,.05,6.09,.13-1.74,.39-3.56,.77-5.44,.87-4.29,1.86-8.55,2.63-11.77l.15-.65,15.2,.2,.08,.73Z"/><path class="j" d="M1500.06,715.48l-.47-.62c-.31,2.57-.62,5.14-.92,7.7-.09,.77-.18,1.54-.28,2.31l.51,.29c.4-3.19,.79-6.42,1.16-9.69Z"/><path class="j" d="M1425.35,724.3c-.08,0-.71-.08-1.32-.17l-.33,2.05c-.33,2.05-.66,4.1-.96,6.16,6.23-1.95,12.51-2.63,18.26-2.63,5.4,0,10.33,.6,14.33,1.34l.95,.11c1.72,.16,3.62,.5,5.81,1.06,4.67,1.19,9.13,2.89,13.39,4.77-2.77-1.92-5.64-3.73-8.64-5.23h0c-4.09-2.05-7.7-3.49-11.37-4.55l-.71-.2c-5.05-.84-10.27-1.26-15.31-1.66l-1.12-.09c-2.07-.17-4.14-.31-6.22-.46l-3.93-.28c-.94-.06-1.88-.13-2.82-.21Z"/><path d="M1454.19,879.91l.6-.36c7.16-4.18,14.47-8.44,18.72-14.59,5.97-8.64,1.4-17.62-2.27-24.83-1.95-3.83-3.97-7.78-4.49-11.47l-.06-.39,.26-.29c.58-.63,1.13-1.34,1.64-2.1l.2-.3,.36-.06c2.79-.44,5.29-1.86,7.26-4.11,2.34-2.68,3.63-6.23,3.61-9.99,0-3.38-1.12-6.66-3.11-9.24l-.24-.32,.1-.39c.84-3.38,1.57-6.42,1.99-8.16l.12-.51,.51-.11c1.24-.26,2.48-.54,3.71-.86,3.24-.9,6.4-1.89,9.36-3.99,.34-.25,.69-.53,1.03-.85l.89-.93c.18-.18,.37-.42,.55-.66l.29-.36c.18-.22,.32-.42,.45-.62,.09-.14,.19-.28,.29-.42,.83-1.23,1.6-2.6,2.39-4.27,1.19-2.56,2.22-5.37,3.23-8.84,.39-1.34,.74-2.67,1.08-3.99l-7.38-9.45c-.97,3.59-2.15,7.12-3.63,10.53l-1.56-.56c1.51-5.14,2.36-10.47,3.05-15.07,1.48-9.97,2.69-20.16,3.87-30.01,.52-4.33,1.03-8.67,1.57-12.99,1.54-12.33,3.13-25.09,4.02-37.88l1.66,.04c.09,3.79,.07,7.72-.05,11.72l8.89,6.06c.23-5.39,.09-9.02-.09-11.17-.04-.74-.13-1.4-.2-1.99l-.04-.32c-.07-.65-.16-1.2-.25-1.64l-.28-1.44-.35-1.28c-.26-.83-.71-2.16-1.49-3.8-1.02-2.19-3.49-6.71-8.49-12.39-5.36-6.05-11.12-10.98-17.6-15.06-2.1-1.31-4.12-2.39-6.16-3.31-2.49-1.12-4.88-1.9-7.1-2.32-2.8-.51-5.44-.58-7.87-.56-2.48,.02-5.13,.18-8.08,.48-5.36,.56-11.03,1.54-16.86,2.91-4.79,1.16-11.12,2.84-17.5,5.62-1.4,.6-2.82,1.31-4.34,2.17-1.25,.73-2.73,1.66-4.1,3.05-2.12,2.21-3.95,4.96-5.58,8.38-2.95,6.28-4.62,13.01-6.08,19.36-1.49,6.68-2.73,13.45-3.97,20.38l-.04,.22c-1.21,6.83-2.44,13.72-3.62,20.71-1.06,6.39-2.25,13.85-2.98,21.45-.64,7.03-1.05,14.58,.31,22.07,.83,4.26,2.17,7.74,4.1,10.63,.94,1.44,2.21,3.1,3.39,4.45,1.43,1.61,2.69,2.86,3.97,3.96,5.14,4.5,11.62,8.07,19.26,10.63,.54,.18,1.09,.35,1.64,.52l.61,.19,.1,.68c-.12,2.51-.27,5.75-.41,9.13-.49,6.66-.5,12.33-.5,15.72,0,9.04,3.7,14.97,9.66,15.59l.74,.08v54.93l-.28,.25c-5.28,4.68-9.51,9.37-13.31,14.78-4.79,6.81-7.08,13.88-6.98,21.75l.62-4.45c.74-5.34,2.43-10.14,5.02-14.28,2.45-3.91,5.58-7.49,8.34-10.64l5.06-5.79-3.71,6.73c-1.16,2.11-2.57,4.11-3.92,6.04-1.22,1.73-2.47,3.52-3.53,5.37-1.19,2.07-2.56,4.56-3.64,7.25-.44,1.09-.81,2.2-1.18,3.32-.27,.8-.54,1.6-.83,2.4l-2.15,5.86c.15,2.52,.53,5.13,1.15,7.84l.2,.89-.9,.12c-32.48,4.29-54.3,15.01-54.3,26.68v10.38c0,15.79,38.13,28.64,85,28.64s85-12.85,85-28.64v-10.38c0-13.63-28.73-25.4-68.42-28.08l-5.94,24.76v-78.21Zm-11.76,78.96c0,1.1-.83,1.94-1.95,1.95h-.04c-1.1,0-1.94-.81-1.97-1.89-.03-.18-.03-.49-.03-.79v-.33l-.03-1.3c-.06-2.19-.11-4.39-.15-6.58l-.12-6.76c-.08-4.2-.16-8.41-.22-12.62-.25-16.93-.33-30.93-.26-44.05,.03-4.85,.05-9.69,.06-14.54,.04-10.05,.08-20.1,.18-30.15,.16-15.37,.89-27.68,2.3-38.75l1.65,.11v15.12c0,29.88,.14,59.41,.29,87.09l.29,53.49Zm25.99-115.48c2.97,4.25,7.26,12.44,2.68,19.5-3.61,5.57-9.32,8.84-13.47,10.6l-.77-1.46c4.41-2.85,9.9-6.39,12.42-11.64,2.68-4.96,.22-10.94-2.29-16.16l1.43-.83Zm-.16,17.94c-2.83,4.09-7.83,7.42-12.81,10.42l-1.26,.75v-39.26l.77-.06,.32,.81-.06-.83c.66-.05,1.29-.13,1.9-.22l.41-.08c.47-.08,.93-.17,1.36-.27l.53-.14c.23-.06,.47-.12,.69-.18l.81-.25,.23,.81c1.04,3.6,2.83,7.11,4.4,10.2,4.06,7.96,6.27,13.17,2.71,18.3Zm.66-37.82c-.73,.16-1.47,.24-2.2,.24-2.59,0-5.14-.99-7.21-2.86h0c-2.45-2.2-3.83-5.34-4.1-9.32,.11-3.97,1.99-7.82,4.92-10.13,2.46-1.94,5.48-2.65,8.51-2.01l3.04,.64-2.96,.96c-2.88,.93-4.72,2.1-6.16,3.9-1.52,1.91-2.32,4.39-2.23,7,.08,2.35,.99,4.67,2.48,6.36,1.67,2.06,3.96,2.98,5.98,3.62l2.97,.93-3.04,.67Zm-46.02-39.6c-3.97-1.88-7.14-3.75-9.99-5.9-4.54-3.42-8.13-7.56-10.39-11.97-.87-1.71-1.58-3.46-2.13-5.28,.37,2.22,.98,4.38,1.85,6.47,2.04,4.95,5.43,9.59,9.81,13.41,.94,.82,1.98,1.66,3.17,2.57l-.87,1.4c-4.02-1.98-7.58-4.32-10.59-6.96-1.17-1.01-2.35-2.18-3.7-3.68-1.3-1.5-2.22-2.71-3.2-4.19-1.68-2.5-2.92-5.7-3.66-9.52-1.3-7.07-.91-14.51-.36-20.86l.05-.54,.51-.17c2.9-.98,5.35-1.76,7.9-2.38,1.33-.32,2.67-.6,4.02-.87-1.35-.14-2.74-.27-4.12-.36-1.99-.12-4.14-.15-6.96-.09l-.95,.02,.11-.95c.17-1.48,.37-2.95,.57-4.42l.07-.5,.47-.17c2.57-.93,5.48-1.99,8.41-2.78,1.29-.34,2.57-.66,3.93-.97-1.32-.1-2.7-.19-4.07-.25-2.49-.09-5.02-.02-7.16,.07l-1,.04,.15-1c.22-1.43,.44-2.85,.67-4.28l.08-.47,.45-.17c3.89-1.5,7.99-2.85,12.46-4.1-3.87-.12-7.55-.09-11.19,.08l-1.03,.05,.97-5.72,.42-.17c3.87-1.59,7.94-3.06,12.37-4.46h-.03c-3.81,0-7.43,.12-10.99,.36l-1.05,.07,1.53-8.81,.77,2.56c3.55-1.53,7.28-2.98,11.33-4.41-3.75,.11-7.31,.32-10.82,.64l-1.08,.1,.19-1.07c.26-1.46,.52-2.91,.79-4.37l.6-3.29,.77,2.46c3.42-1.57,7.08-3.12,11.09-4.69-3.67,.22-7.13,.52-10.51,.89l-1.12,.12,.21-1.11c.27-1.4,.55-2.79,.84-4.18l.08-.4,.36-.18c3.56-1.75,7.4-3.52,11.7-5.37-3.53,.33-6.81,.69-9.95,1.1l-1.19,.15,.27-1.17c.35-1.48,.71-2.94,1.1-4.4l.09-.35,.33-.17c3.33-1.73,6.86-3.48,10.92-5.4-3.15,.39-5.98,.78-8.7,1.18l-1.34,.2,.43-1.28c.79-2.36,1.6-4.42,2.49-6.31,1.47-3.13,3.19-5.73,5.1-7.73,.57-.58,1.3-1.16,2.17-1.75l2.52-1.71-1.28,2.68c1-1.31,2.2-2.57,3.64-3.6l.56-.28c1.34-.58,2.74-1.15,4.16-1.68l2-.74-.97,1.89c-.1,.19-.19,.38-.28,.57,.89-1.17,1.93-2.23,3.14-3.03l.21-.1c2.1-.67,4.29-1.29,6.7-1.91l1.99-.51-1.07,1.75c-.23,.38-.45,.78-.66,1.19,1.22-1.48,2.65-2.66,4.23-3.45l.19-.07c2.41-.53,4.81-1,7.14-1.38l1.97-.33-1.41,1.96c-.31,.48-.6,.98-.86,1.5,1.48-1.83,3.27-3.14,5.29-3.84l.17-.04,.67-.08c.33-.04,.65-.09,.97-.12,1.5-.16,3.05-.28,4.74-.37l2.07-.11-1.42,1.51c-.64,.68-1.2,1.41-1.67,2.19,1.77-1.81,4.02-3.07,6.64-3.64l.1-.02h.11c1.8,.07,3.3,.22,4.6,.45,4.63,.89,8.66,3.03,11.29,4.57l4.33,2.53-4.92-1c-.54-.11-1.08-.23-1.61-.34-5.61-1.21-9.66-2.09-11.63,4.89-.49,1.73-.96,3.75-1.41,6l-.16,.79-.8-.14c-3.04-.53-6.59-.23-9.44,0-6.09,.51-12.52,2-19.65,4.56-.4,.14-.8,.29-1.2,.44,3.39-.09,6.78-.33,10.1-.56,6.34-.45,12.9-.91,19.39-.33l.75,.07v.15c5.07,1.57,9.47,3.74,13.45,6.61,4.09,2.96,8.04,6.34,12.41,10.62l-1.04,1.28c-4.92-3.32-9.14-5.78-13.29-7.76-3.64-1.86-7.82-3.1-12.44-3.7l-.24-.04c-.33-.06-.67-.12-1.01-.17-4.73-.63-10.03-.34-16.67,.89-3.49,.67-6.6,1.44-9.49,2.35-1.15,.37-2.29,.73-3.4,1.15,1.37-.03,2.74-.07,4.11-.11,3.42-.11,6.85-.25,10.28-.4l.76-.03c3.18-.13,6.92-.24,10.59-.04l.99,.05c.91,.04,1.84,.08,2.77,.19l.8,.1-.02,.22c1.68,.5,3.08,.98,4.39,1.5,2.23,.88,4.29,2.09,6.29,3.26l.48,.28s.07,.04,.1,.06c5.54,3.35,10.35,7.62,14.73,11.74l-1.01,1.3c-5.69-3.63-12.37-7.68-19.71-9.85l-.19-.06c-1.71-.5-3.48-1.03-5.18-1.15-.26-.03-.53-.06-.8-.11l-.74-.06c-.66-.12-1.33-.22-2.01-.29-5.32-.55-11.47-.12-18.28,1.29-3.02,.63-6.05,1.44-9,2.41l-.33,.1c-.22,.07-.45,.14-.68,.22,3.07,.02,6.17-.05,9.18-.11,2.63-.06,5.26-.11,7.9-.12,2.78,0,6.09,.01,9.51,.23,.7,.12,1.32,.16,1.99,.19,.44,.02,.89,.05,1.32,.1l.83,.09-.03,.28c3.32,1.05,6.49,2.42,9.87,4.27h0l.98,.54c.06,.03,.12,.07,.17,.1,5.16,3.01,9.68,6.76,14.87,11.44l-.98,1.32c-6.37-3.85-12.66-7.47-19.57-9.43-1.93-.55-3.8-.96-5.74-1.27-.11-.02-.31-.05-.55-.1l-.69-.03c-1.08-.2-1.98-.33-2.85-.41-5.9-.52-12.33-.11-19.1,1.23-2.94,.58-5.81,1.34-8.55,2.26,.17,0,.34,0,.5,0,3.13,.08,6.25,.09,9.37,.1,3.08,0,6.15,.02,9.23,.1l1.8,.04c3.08,.06,6.27,.12,9.28,.69l.75,.14-.03,.28c3.43,1.1,6.72,2.53,10.29,4.48h0c.05,.03,.11,.06,.16,.09,.03,.02,.06,.03,.08,.05,.05,.03,.1,.06,.16,.09,5.67,3.18,10.57,7.28,15.1,11.19l-.95,1.34c-6.36-3.63-12.83-7.34-19.82-9.13-1.74-.48-3.43-.8-5.46-1.17l-.33-.05h-.05v.06l-.9-.1c-1.48-.31-2.94-.52-4.36-.63-6.63-.51-13.35-.06-19.98,1.36-2.42,.52-4.49,1.06-6.34,1.66,.71,.03,1.41,.05,2.11,.07l4.18,.12c4.59,.13,9.33,.26,14,.5l.91,.05c2.99,.15,6.07,.31,9.06,.85l.78,.14-.04,.27c3.33,1.06,6.66,2.49,10.15,4.34h0l.15,.08s.07,.04,.09,.05c.03,.01,.05,.03,.08,.04h0c5.6,3.02,10.48,6.91,15.39,10.98l-.93,1.36c-6.07-3.32-12.95-7.08-20.31-8.91-1.94-.51-3.78-.87-5.64-1.11v.06l-.9-.1c-1.52-.31-3-.54-4.5-.69-6.62-.67-13.67-.3-20.37,1.08-2.1,.43-3.92,.88-5.57,1.38,.66,.04,1.32,.07,1.98,.1l3.89,.19c4.54,.22,9.24,.45,13.85,.82l1.63,.12c2.79,.21,5.67,.42,8.47,.93l.8,.14-.04,.24c3.39,1.06,6.7,2.44,10.35,4.31l.5,.26c5.77,3.01,10.9,7.06,15.44,10.63l-.89,1.39c-6.22-3.22-13.28-6.87-20.8-8.68-1.95-.49-3.71-.82-5.39-1.01-.06,0-.15,0-.27,0h-.27c-.93-.19-1.71-.34-2.51-.46-5.29-.81-10.93-.95-16.75-.44-2.72,.24-5.57,.69-8.73,1.38-.85,.16-1.69,.39-2.52,.63,.54,.04,1.07,.08,1.61,.11l3.93,.28c2.08,.15,4.15,.3,6.23,.46l1.12,.09c5.36,.43,10.9,.87,16.28,1.82l.81,.14-.03,.17c3.45,1.04,6.88,2.42,10.7,4.33h0l.15,.08s.05,.03,.08,.04c.03,.02,.07,.03,.11,.06l.14,.07c5.47,2.76,10.41,6.46,15.2,10.04l.45,.33-.86,1.41c-6.49-3.19-13.45-6.46-20.92-8.36-2.1-.53-3.92-.87-5.55-1.01l-1.05-.11c-7.66-1.41-18.72-2.33-29.81,.64,1.74,.17,3.48,.31,5.19,.44,1.78,.14,3.55,.28,5.31,.46,6.68,.67,12.21,1.39,17.41,2.26l1.68,.31v.12c4.89,1.43,9.68,3.49,14.62,6.29,4.03,2.28,7.84,4.98,11.53,7.58l.9,.63c.41-2.3,.77-4.62,1.13-6.97,1.7-11.2,3.08-22.64,4.41-33.7,.39-3.21,.78-6.42,1.17-9.63l.3-2.48c1.38-11.19,2.8-22.76,3.93-34.17l1.65,.05c.15,4.65,.06,9.63-.28,15.68-.73,12.73-2.13,26.45-4.42,43.17-1.07,7.83-2.26,14.76-3.63,21.16-1.36,6.33-2.68,11.59-4.75,16.69l-1.56-.53c.77-2.79,1.38-5.62,1.91-8.51l-.47,.82c-6.07-2.82-12.55-5.71-19.22-7.5-.67,3.65-1.35,7.42-1.74,11.15-.33,3.21-.27,5.87,.19,8.15,.45,2.19,1.1,4.18,1.68,5.83l-1.52,.65c-1.16-2.26-1.96-4.08-2.61-5.89-.85-2.4-1.32-5.27-1.44-8.79-.14-4.01,.03-8.07,.2-11.99v-.28c-.91-.16-1.85-.29-2.79-.4-.88,9.03-.57,15.83,.99,21.98,2.34,9.21,11.62,17.03,18.85,20.92l4.18,2.25-4.7-.7c-1-.15-2-.31-2.99-.53-2.6-.58-5.15-1.44-7.58-2.56-4.77-2.19-9.17-5.77-12.73-10.37-3.37-4.35-6.03-9.27-7.91-14.62-.32-.92-.66-1.91-.97-2.97,.33,2.19,.86,4.52,1.59,6.99,2.06,6.93,5.37,12.89,9.84,17.73,.61,.66,1.28,1.33,2.08,2.05l3.34,3.06-4.21-1.68c-3.34-1.33-6.29-3.02-9.01-5.15-5.04-3.95-9.2-9.41-12.05-15.8-.3-.67-.58-1.34-.84-2.01,.2,.73,.42,1.47,.67,2.22,2.17,6.73,5.8,12.73,10.5,17.34,.65,.64,1.36,1.28,2.25,2.04l3.95,3.36-4.8-1.96c-2.2-.9-4.08-1.84-5.76-2.89-2.16-1.35-4.15-2.76-6.28-4.45-1.99-1.57-3.63-3.56-5.21-5.48l-.3-.36c-3.19-3.86-5.2-8.31-6.45-12.18,1.4,7.57,5.18,14.86,10.77,20.24,1.07,1.03,2.18,2.02,3.31,2.94l4.5,3.67-5.35-2.26c-1.1-.46-2.19-.95-3.27-1.47-9.67-4.69-17.07-12.88-20.47-22.44,1.36,6.92,4.89,13.48,10.18,18.5,1.14,1.08,2.35,2.14,3.6,3.15l5.42,4.37-6.3-2.98Zm62.04-136.13v.96l-.95-.14c-.9-.13-1.8-.3-2.7-.47l-1.26-.23c-1.41-.25-3.05-.54-4.15,.02-1.3,.65-2.08,2.14-2.9,3.71-.54,1.04-1.11,2.11-1.85,2.95l-1.56,1.77,.11-2.35c.16-3.56,1.65-8.11,5.33-9.23,2.11-.64,4.24,.03,6.09,.71,3.53,1.27,3.85,1.64,3.85,2.3Zm-53.04,152.01c-.74,3.13-1.66,7.09-2.47,11.08-.6,2.93-.88,5.69-.84,8.21,.13,2.22,.5,4.32,1.16,6.58l-1.54,.59c-1.2-2.52-1.99-4.87-2.46-7.39-.58-3.06-.51-6.27-.41-9.04,.16-4.39,.47-8.68,.82-13.43l.36-7.67h24.68l-.05,.88c-.12,2.09-.33,5.81-.51,9.64l-.06,.79c-.2,4.43-.39,8.9-.28,13.28,.18,3.17,.42,6.29,1.41,9.35,.65,2.01,1.71,3.91,2.73,5.76l.23,.42-1.38,.91-.58-.75c-1.47-1.9-3-3.86-3.9-6.15-1.29-2.91-2.21-6.09-2.8-9.67-.73-4.43-1.23-8.89-1.7-13.22l-12.41-.16Zm-7.35,106.22c2.16-3.06,4.43-5.84,6.94-8.5l1.43-1.51v37.03l-.79,.04c-3.78,.17-7.58,.44-11.28,.79l-.71,.07-.17-.69c-2.57-10.46-1.11-19.11,4.58-27.21Zm74.87,74.95l.44,1.6c-7.88,2.65-15.69,4.65-23.86,6.12-9.23,1.65-19.48,2.56-31.33,2.77-1.29,.02-2.58,.04-3.86,.04-13.81,0-27.2-1.36-39.87-4.06-9.94-2.12-24.51-5.99-36.11-14.96l.93-1.37c8.42,5.03,17.61,7.74,24.67,9.54,8.72,2.22,18.55,3.79,29.22,4.69,28.09,2.36,54.93,.89,79.77-4.36Z"/><path d="M1502.82,704.98l8.46,5.34c.14-1.19,.27-2.35,.39-3.49l-8.11-10.85c-.22,3.01-.47,6.02-.75,9.01Z"/><path d="M1504.15,685.44c-.11,2.93-.27,5.87-.47,8.79l8.69,5.71c.12-1.3,.23-2.56,.32-3.78l-8.51-11.45c0,.24-.02,.49-.03,.73Z"/><path d="M1500.07,729.16l-.34,2.65c-.2,1.56-.4,3.14-.6,4.71l8.24,4.45c.16-1.1,.31-2.18,.45-3.26l-7.58-9.94c-.06,.46-.12,.92-.18,1.38Z"/><path d="M1501.72,715.57l8.32,5.01,.42-3.37-7.81-10.39c-.29,2.94-.6,5.85-.92,8.74Z"/><path d="M1500.46,726.06l8.28,4.74c.15-1.11,.29-2.21,.43-3.3l-7.65-10.11c-.34,2.92-.69,5.81-1.05,8.67Z"/><path d="M1497.58,746.88l8.25,4.18c.18-1.1,.35-2.19,.52-3.27l-7.44-9.69c-.39,2.93-.82,5.87-1.33,8.79Z"/><path d="M1497.36,748.12c-.54,2.99-1.18,5.95-1.95,8.88l8.59,4.02c.24-1.15,.46-2.3,.68-3.43l-7.32-9.46Z"/><path d="M1429.45,670.47c.02-.2,.05-.41,.07-.61l.05-.46c.18-1.53,.36-3.06,.55-4.58-2.49,9.55-3.9,19.26-5.04,27.94l-.28,2.16c-1.53,11.56-3.1,23.47-3.4,35.26,.22-1.42,.45-2.85,.68-4.27l.52-3.24c.53-3.37,1.06-6.74,1.57-10.12l.06-.39c.5-3.37,.99-6.74,1.45-10.12l.05-.39c.41-3.1,.81-6.21,1.19-9.32l.12-1.03c.41-3.43,.81-6.86,1.21-10.28l.27-2.32c.25-2.18,.5-4.36,.76-6.54h0l.2-1.7Z"/><path d="M1412.18,724.39c1.09-6.86,2.23-14.22,3.21-21.55,.53-3.99,1.03-7.98,1.53-11.97,1.02-8.14,2.07-16.5,3.42-24.78-.69,2.31-1.34,4.72-1.93,7.2l-.19,.8c-.7,3.01-1.32,6.11-1.91,9.49l-.17,.98c-.48,2.85-.93,5.89-1.38,9.29l-.43,3.29c-.3,2.33-.61,4.67-.9,7.01l-.11,.89c-.39,3.13-.76,6.27-1.08,9.41l-.08,.78c-.32,3.17-.59,6.38-.78,9.54l-.05,.85c-.11,1.83-.18,3.66-.22,5.48,.21-1.33,.42-2.65,.63-3.96l.44-2.75Z"/><path class="b" d="M1455.85,880.86c7.19-4.19,14.59-8.54,19.02-14.94,6.54-9.45,1.72-18.92-2.16-26.53-1.82-3.57-3.7-7.25-4.27-10.57,.46-.53,.91-1.1,1.33-1.7,3.03-.56,5.75-2.15,7.89-4.59,2.61-2.99,4.04-6.93,4.02-11.09-.01-3.6-1.15-7.11-3.21-9.93,.72-2.93,1.36-5.56,1.78-7.28,1.1-.23,2.19-.49,3.29-.77,3.4-.94,6.71-1.98,9.9-4.24,.41-.3,.8-.62,1.2-1l.95-.99c.19-.2,.42-.48,.64-.76l.27-.34c.21-.26,.38-.5,.55-.74l.28-.4c.9-1.33,1.7-2.76,2.53-4.52,1.23-2.64,2.28-5.53,3.32-9.08,.43-1.49,.83-2.97,1.19-4.45l.1-.39-4.29-5.49,5.02,2.35,.22-1.02c.35-1.63,.67-3.25,.97-4.86l.07-.37-4.99-6.45,5.64,2.85,.19-1.11c.27-1.6,.52-3.19,.76-4.76l.05-.35-5.36-6.98,5.92,3.2,.17-1.18c.23-1.62,.45-3.21,.67-4.78l.05-.34-5.52-7.25,6.03,3.45,.16-1.23c.22-1.65,.43-3.27,.63-4.86l.04-.34-5.58-7.37,6.05,3.65,.82-6.56-5.59-7.44,6.03,3.81,.15-1.31c.21-1.76,.4-3.48,.58-5.14l.04-.32-5.52-7.39,5.89,3.87,.13-1.37c.18-1.91,.34-3.75,.48-5.49l.02-.31-5.24-7.05,5.47,3.73,.08-1.47c.27-4.99,.26-9.44-.02-12.84-.04-.77-.13-1.47-.21-2.09l-.04-.3c-.08-.71-.17-1.3-.27-1.77l-.3-1.53-.36-1.33c-.28-.91-.76-2.32-1.58-4.04-1.83-3.92-4.94-8.46-8.75-12.78-5.47-6.17-11.34-11.19-17.97-15.37-2.17-1.35-4.24-2.46-6.36-3.42-2.61-1.17-5.13-2-7.48-2.44-2.93-.53-5.69-.6-8.18-.59-2.54,.02-5.24,.18-8.25,.49-5.43,.56-11.18,1.56-17.08,2.95-4.86,1.17-11.28,2.89-17.77,5.71-1.45,.62-2.92,1.36-4.51,2.25-1.36,.79-2.95,1.8-4.47,3.33-2.25,2.35-4.18,5.24-5.89,8.83-3.02,6.43-4.72,13.26-6.2,19.7-1.49,6.72-2.74,13.51-3.98,20.45l-.04,.22c-1.21,6.83-2.44,13.73-3.62,20.72-1.06,6.42-2.26,13.91-3,21.57-.65,7.15-1.06,14.83,.33,22.53,.87,4.49,2.29,8.17,4.34,11.24,.97,1.49,2.29,3.22,3.53,4.64,1.49,1.67,2.8,2.97,4.12,4.11,5.3,4.64,11.97,8.32,19.81,10.95,.38,.13,.77,.25,1.2,.38-.11,2.41-.25,5.4-.39,8.5-.49,6.66-.5,12.37-.5,15.9,0,9.34,4.06,15.92,10.41,17.02v52.71c-5.25,4.68-9.48,9.4-13.29,14.82-5.17,7.36-7.55,15.01-7.26,23.57,.09,2.66,.43,5.41,1.03,8.27-33.35,4.55-54.85,15.58-54.85,28.2v10.38c0,16.99,38.07,30.29,86.66,30.29s86.66-13.31,86.66-30.29v-10.38c0-14.61-29.72-27.13-70.67-29.78l-.7-.05-3,12.5v-63.26Zm72.7,80.58v10.38c0,15.79-38.13,28.64-85,28.64s-85-12.85-85-28.64v-10.38c0-11.67,21.82-22.39,54.3-26.68l.9-.12-.2-.89c-.62-2.71-1-5.32-1.15-7.84l2.15-5.86c.29-.8,.56-1.6,.83-2.4,.37-1.11,.74-2.23,1.18-3.32,1.08-2.69,2.45-5.17,3.64-7.25,1.06-1.85,2.32-3.64,3.53-5.37,1.35-1.93,2.75-3.92,3.92-6.04l3.71-6.73-5.06,5.79c-2.76,3.15-5.88,6.73-8.34,10.64-2.59,4.13-4.28,8.94-5.02,14.28l-.62,4.45c-.1-7.87,2.2-14.94,6.98-21.75,3.81-5.41,8.04-10.11,13.31-14.78l.28-.25v-54.93l-.74-.08c-5.96-.61-9.66-6.54-9.66-15.59,0-3.39,.02-9.06,.5-15.72,.14-3.37,.29-6.62,.41-9.13l-.1-.68-.61-.19c-.55-.17-1.09-.33-1.64-.52-7.63-2.56-14.11-6.14-19.26-10.63-1.27-1.09-2.54-2.35-3.97-3.96-1.18-1.36-2.45-3.02-3.39-4.45-1.93-2.89-3.27-6.37-4.1-10.63-1.35-7.49-.95-15.04-.31-22.07,.73-7.6,1.92-15.06,2.98-21.45,1.18-6.99,2.4-13.88,3.62-20.71l.04-.22c1.24-6.93,2.48-13.7,3.97-20.38,1.46-6.35,3.13-13.08,6.08-19.36,1.63-3.42,3.46-6.17,5.58-8.38,1.37-1.39,2.85-2.32,4.1-3.05,1.52-.86,2.94-1.57,4.34-2.17,6.38-2.78,12.7-4.46,17.5-5.62,5.83-1.38,11.5-2.36,16.86-2.91,2.96-.3,5.6-.46,8.08-.48,2.43-.01,5.07,.06,7.87,.56,2.22,.42,4.61,1.2,7.1,2.32,2.04,.92,4.06,2.01,6.16,3.31,6.49,4.09,12.24,9.02,17.6,15.06,5,5.67,7.46,10.19,8.49,12.39,.78,1.64,1.23,2.97,1.49,3.8l.35,1.28,.28,1.44c.09,.44,.18,.99,.25,1.64l.04,.32c.07,.58,.16,1.24,.2,1.99,.17,2.15,.32,5.78,.09,11.17l-8.89-6.06c.12-4,.14-7.93,.05-11.72l-1.66-.04c-.89,12.79-2.48,25.54-4.02,37.88-.54,4.33-1.06,8.66-1.57,12.99-1.17,9.86-2.39,20.05-3.87,30.01-.69,4.59-1.54,9.93-3.05,15.07l1.56,.56c1.48-3.41,2.66-6.93,3.63-10.53l7.38,9.45c-.33,1.32-.69,2.65-1.08,3.99-1.01,3.47-2.04,6.28-3.23,8.84-.79,1.67-1.56,3.04-2.39,4.27-.1,.14-.2,.28-.29,.42-.14,.2-.28,.41-.45,.62l-.29,.36c-.19,.23-.38,.47-.55,.66l-.89,.93c-.34,.32-.69,.6-1.03,.85-2.96,2.1-6.12,3.08-9.36,3.99-1.23,.32-2.47,.6-3.71,.86l-.51,.11-.12,.51c-.42,1.75-1.16,4.78-1.99,8.16l-.1,.39,.24,.32c1.99,2.58,3.1,5.86,3.11,9.24,.01,3.76-1.27,7.31-3.61,9.99-1.96,2.25-4.47,3.67-7.26,4.11l-.36,.06-.2,.3c-.51,.76-1.06,1.46-1.64,2.1l-.26,.29,.06,.39c.52,3.68,2.54,7.64,4.49,11.47,3.67,7.21,8.24,16.19,2.27,24.83-4.25,6.14-11.56,10.41-18.72,14.59l-.6,.36v78.21l5.94-24.76c39.69,2.68,68.42,14.45,68.42,28.08Zm-33.14-204.45c.77-2.92,1.4-5.89,1.95-8.88l7.32,9.46c-.22,1.14-.44,2.28-.68,3.43l-8.59-4.02Zm.33-11.04c.47-3.41,.91-6.84,1.34-10.25l.42,.54c-.43,3.29-.89,6.59-1.45,9.86l-.3-.15Zm.25,.4c-.34,1.99-.72,3.97-1.15,5.94,.31-2.08,.61-4.18,.89-6.27l.26,.34Zm1.12-10.92c.42-3.4,.83-6.78,1.23-10.14l.46,.61c-.13,1.02-.26,2.04-.39,3.05l-.34,2.65c-.17,1.35-.34,2.71-.52,4.08l-.45-.25Zm1.28-10.55c.09-.77,.18-1.54,.28-2.31,.31-2.57,.61-5.14,.92-7.7l.47,.62c-.37,3.27-.76,6.5-1.16,9.69l-.51-.29Zm2.77-20.02c-.31,3.28-.65,6.54-1.01,9.77l-.5-.3c.19-1.58,.39-3.16,.58-4.75,.21-1.69,.42-3.39,.64-5.1l.29,.38Zm-.2-1.05c.32-2.55,.63-5.12,.93-7.7-.19,2.63-.41,5.26-.65,7.88l-.28-.18Zm4.88,47.25l-8.25-4.18c.51-2.92,.94-5.86,1.33-8.79l7.44,9.69c-.17,1.08-.34,2.17-.52,3.27Zm1.53-10.09l-8.24-4.45c.21-1.57,.4-3.15,.6-4.71l.34-2.65c.06-.46,.12-.92,.18-1.38l7.58,9.94c-.15,1.07-.3,2.16-.45,3.26Zm1.37-10.17l-8.28-4.74c.36-2.85,.71-5.75,1.05-8.67l7.65,10.11c-.14,1.08-.28,2.18-.43,3.3Zm1.3-10.22l-8.32-5.01c.33-2.89,.64-5.81,.92-8.74l7.81,10.39-.42,3.37Zm1.25-10.26l-8.46-5.34c.28-2.99,.53-5.99,.75-9.01l8.11,10.85c-.12,1.14-.26,2.31-.39,3.49Zm1.09-10.38l-8.69-5.71c.19-2.92,.35-5.86,.47-8.79,0-.24,.02-.49,.03-.73l8.51,11.45c-.1,1.22-.2,2.48-.32,3.78Z"/><path class="b" d="M1420.14,933.93l.71-.07c3.7-.35,7.49-.61,11.28-.79l.79-.04v-37.03l-1.43,1.51c-2.51,2.65-4.78,5.43-6.94,8.5-5.69,8.1-7.15,16.75-4.58,27.21l.17,.69Zm5.77-26.95c1.69-2.4,3.46-4.63,5.36-6.76v31.24c-3.3,.16-6.61,.39-9.85,.69-.38-1.66-.61-3.27-.78-4.84-.79-7.55,.91-14.12,5.27-20.33Z"/><path class="b" d="M1419.65,985.33c-10.67-.89-20.5-2.47-29.22-4.69-7.06-1.79-16.25-4.5-24.67-9.54l-.93,1.37c11.61,8.98,26.17,12.84,36.11,14.96,12.67,2.69,26.06,4.06,39.87,4.06,1.28,0,2.57-.01,3.86-.04,11.85-.21,22.1-1.12,31.33-2.77,8.17-1.47,15.97-3.47,23.86-6.12l-.44-1.6c-24.84,5.25-51.68,6.72-79.77,4.36Zm-18.36,.49c-5.98-1.28-13.67-3.19-21.32-6.49,3.59,1.22,7.02,2.16,10.06,2.93,8.81,2.24,18.73,3.83,29.49,4.73,22.28,1.87,43.77,1.35,64.11-1.54-2.61,.6-5.24,1.14-7.92,1.62-9.15,1.64-19.31,2.53-31.07,2.75-15.07,.29-29.64-1.06-43.35-3.99Z"/><path class="b" d="M1475.01,644.78c-3.68,1.12-5.17,5.68-5.33,9.23l-.11,2.35,1.56-1.77c.74-.84,1.3-1.92,1.85-2.95,.83-1.57,1.6-3.06,2.9-3.71,1.11-.56,2.75-.27,4.15-.02l1.26,.23c.9,.17,1.8,.33,2.7,.47l.95,.14v-.96c0-.66-.32-1.03-3.85-2.3-1.84-.68-3.98-1.35-6.09-.71Zm-1.86,3.37c.4-.56,.87-1.03,1.44-1.38-.56,.37-1.03,.85-1.44,1.38Z"/><path class="b" d="M1446.01,813.18c.59,3.58,1.51,6.75,2.8,9.67,.9,2.29,2.42,4.25,3.9,6.15l.58,.75,1.38-.91-.23-.42c-1.02-1.84-2.08-3.75-2.73-5.76-.99-3.06-1.23-6.18-1.41-9.35-.11-4.38,.08-8.85,.28-13.28l.06-.79c.18-3.84,.39-7.55,.51-9.64l.05-.88h-24.68l-.36,7.67c-.35,4.75-.66,9.05-.82,13.43-.1,2.77-.17,5.98,.41,9.04,.47,2.51,1.26,4.86,2.46,7.39l1.54-.59c-.66-2.26-1.03-4.36-1.16-6.58-.04-2.51,.25-5.27,.84-8.21,.81-3.99,1.73-7.95,2.47-11.08l12.41,.16c.47,4.33,.97,8.79,1.7,13.22Zm-15.57-14.41c-.77,3.23-1.76,7.48-2.63,11.77-.38,1.88-.64,3.7-.77,5.44-.17-2.09-.12-4.2-.05-6.09,.16-4.36,.46-8.63,.82-13.4l.29-6.11h21.35c-.12,2.02-.28,4.99-.43,8.1l-.06,.79c-.21,4.61-.43,9.37-.31,14.1,.11,2.01,.25,3.99,.58,5.96-.68-2-1.2-4.13-1.58-6.43-.76-4.63-1.27-9.32-1.77-13.85l-.08-.73-15.2-.2-.15,.65Z"/><path class="b" d="M1423.77,782.53c-1.25-1.01-2.46-2.07-3.6-3.15-5.28-5.02-8.81-11.58-10.18-18.5,3.4,9.56,10.8,17.75,20.47,22.44,1.08,.52,2.17,1,3.27,1.47l5.35,2.26-4.5-3.67c-1.13-.92-2.24-1.91-3.31-2.94-5.59-5.38-9.37-12.67-10.77-20.24,1.25,3.87,3.26,8.32,6.45,12.18l.3,.36c1.58,1.92,3.22,3.91,5.21,5.48,2.13,1.69,4.12,3.11,6.28,4.45,1.68,1.05,3.56,1.99,5.76,2.89l4.8,1.96-3.95-3.36c-.89-.75-1.6-1.4-2.25-2.04-4.7-4.61-8.32-10.61-10.5-17.34-.24-.75-.46-1.49-.67-2.22,.26,.66,.54,1.33,.84,2.01,2.84,6.39,7.01,11.86,12.05,15.8,2.72,2.13,5.67,3.82,9.01,5.15l4.21,1.68-3.34-3.06c-.79-.73-1.47-1.4-2.08-2.05-4.47-4.83-7.78-10.8-9.84-17.73-.73-2.47-1.26-4.8-1.59-6.99,.31,1.06,.65,2.05,.97,2.97,1.88,5.35,4.54,10.27,7.91,14.62,3.56,4.6,7.97,8.18,12.73,10.37,2.43,1.12,4.97,1.98,7.58,2.56,.99,.22,1.99,.38,2.99,.53l4.7,.7-4.18-2.25c-7.23-3.9-16.51-11.71-18.85-20.92-1.56-6.15-1.87-12.95-.99-21.98,.94,.11,1.87,.24,2.8,.4v.28c-.18,3.92-.36,7.98-.22,11.99,.12,3.52,.59,6.39,1.44,8.79,.64,1.81,1.45,3.63,2.61,5.89l1.52-.65c-.58-1.65-1.23-3.64-1.68-5.83-.46-2.28-.52-4.95-.19-8.15,.39-3.73,1.07-7.5,1.74-11.15,6.68,1.79,13.15,4.68,19.22,7.5l.47-.82c-.53,2.88-1.14,5.72-1.91,8.51l1.56,.53c2.07-5.09,3.4-10.35,4.75-16.69,1.37-6.4,2.55-13.33,3.63-21.16,2.29-16.72,3.69-30.44,4.42-43.17,.35-6.05,.44-11.04,.28-15.68l-1.65-.05c-1.13,11.41-2.56,22.98-3.93,34.17l-.3,2.48c-.39,3.21-.78,6.42-1.17,9.63-1.33,11.06-2.71,22.5-4.41,33.7-.36,2.35-.72,4.67-1.13,6.97l-.9-.63c-3.69-2.6-7.5-5.3-11.53-7.58-4.94-2.8-9.73-4.86-14.63-6.29v-.12l-1.67-.31c-5.2-.88-10.73-1.6-17.41-2.26-1.77-.18-3.54-.32-5.31-.46-1.71-.13-3.45-.27-5.19-.44,11.1-2.97,22.15-2.05,29.81-.64l1.05,.11c1.63,.15,3.45,.48,5.55,1.01,7.47,1.9,14.43,5.17,20.92,8.36l.86-1.41-.45-.33c-4.79-3.58-9.74-7.28-15.2-10.04l-.14-.07s-.08-.04-.11-.06c-.03-.01-.06-.03-.08-.04l-.15-.08h0c-3.82-1.9-7.25-3.29-10.7-4.32l.03-.17-.81-.14c-5.38-.95-10.92-1.4-16.28-1.82l-1.12-.09c-2.08-.17-4.15-.32-6.23-.46l-3.93-.28c-.54-.04-1.07-.07-1.61-.11,.83-.24,1.68-.47,2.52-.63,3.16-.69,6.02-1.14,8.73-1.38,5.82-.52,11.45-.37,16.75,.44,.79,.12,1.58,.27,2.51,.46h.27c.11,0,.21,0,.27,.01,1.68,.19,3.44,.52,5.39,1.01,7.53,1.81,14.58,5.46,20.8,8.68l.89-1.39c-4.54-3.57-9.67-7.62-15.44-10.63l-.5-.26c-3.65-1.87-6.97-3.25-10.35-4.31l.04-.24-.8-.14c-2.8-.51-5.68-.72-8.47-.93l-1.63-.12c-4.61-.37-9.31-.59-13.85-.82l-3.89-.19c-.66-.03-1.32-.06-1.98-.1,1.64-.49,3.46-.94,5.57-1.38,6.7-1.38,13.75-1.75,20.37-1.08,1.5,.15,2.97,.38,4.5,.69l.9,.1v-.06c1.87,.24,3.71,.6,5.65,1.11,7.36,1.83,14.24,5.59,20.31,8.91l.93-1.36c-4.91-4.07-9.78-7.96-15.39-10.98h0s-.05-.03-.08-.05c-.03-.01-.06-.03-.09-.05l-.15-.08h0c-3.49-1.85-6.82-3.27-10.15-4.34l.04-.27-.78-.14c-2.99-.55-6.08-.7-9.06-.85l-.91-.05c-4.66-.25-9.41-.38-14-.5l-4.18-.12c-.7-.02-1.41-.04-2.11-.07,1.86-.6,3.92-1.14,6.34-1.66,6.63-1.42,13.35-1.87,19.98-1.36,1.42,.11,2.88,.33,4.36,.63l.9,.1v-.07h.06l.33,.06c2.03,.37,3.71,.69,5.46,1.17,6.98,1.79,13.46,5.5,19.82,9.13l.95-1.34c-4.53-3.92-9.43-8.01-15.1-11.19-.05-.03-.1-.06-.16-.09-.02-.01-.05-.03-.08-.05-.06-.03-.11-.06-.16-.09-3.57-1.95-6.87-3.38-10.29-4.48l.03-.28-.75-.14c-3.01-.56-6.2-.63-9.28-.69l-1.8-.04c-3.08-.08-6.15-.09-9.23-.1-3.12-.01-6.24-.02-9.37-.1-.17,0-.34,0-.5,0,2.74-.92,5.62-1.68,8.55-2.26,6.77-1.34,13.2-1.76,19.1-1.23,.87,.08,1.77,.21,2.85,.41l.69,.03c.24,.05,.44,.08,.55,.1,1.93,.31,3.81,.72,5.74,1.27,6.91,1.96,13.2,5.58,19.57,9.43l.98-1.32c-5.19-4.69-9.71-8.43-14.87-11.44-.06-.04-.12-.07-.17-.1l-.98-.55h0c-3.38-1.84-6.55-3.21-9.87-4.26l.03-.28-.83-.09c-.44-.05-.88-.07-1.32-.1-.67-.04-1.29-.07-1.99-.19-3.42-.21-6.73-.23-9.51-.23-2.63,0-5.26,.06-7.9,.12-3.01,.06-6.12,.14-9.18,.11,.22-.07,.45-.14,.68-.22l.33-.1c2.96-.97,5.99-1.78,9-2.41,6.81-1.41,12.95-1.85,18.28-1.29,.67,.07,1.34,.17,2.01,.29l.74,.06c.27,.04,.54,.08,.8,.11,1.71,.12,3.47,.64,5.18,1.15l.19,.06c7.34,2.17,14.03,6.22,19.71,9.85l1.01-1.3c-4.37-4.12-9.19-8.4-14.73-11.74-.03-.02-.06-.04-.1-.06l-.48-.28c-2-1.17-4.06-2.38-6.29-3.26-1.3-.51-2.71-1-4.39-1.5l.02-.22-.8-.1c-.92-.12-1.86-.16-2.77-.19l-.99-.05c-3.67-.19-7.41-.09-10.59,.04l-.76,.03c-3.43,.15-6.86,.29-10.28,.4-1.37,.04-2.74,.08-4.11,.11,1.12-.41,2.25-.78,3.4-1.15,2.9-.92,6-1.68,9.49-2.35,6.64-1.24,11.94-1.52,16.67-.89,.34,.04,.67,.11,1.01,.17l.24,.04c4.61,.6,8.79,1.84,12.44,3.7,4.15,1.98,8.37,4.44,13.29,7.76l1.04-1.28c-4.37-4.29-8.32-7.66-12.41-10.62-3.97-2.88-8.38-5.04-13.45-6.61v-.15l-.75-.07c-6.49-.59-13.05-.12-19.39,.33-3.31,.23-6.71,.47-10.1,.56,.4-.15,.8-.3,1.2-.44,7.13-2.55,13.55-4.04,19.65-4.56,2.85-.24,6.4-.54,9.44,0l.8,.14,.16-.79c.45-2.25,.92-4.27,1.41-6,1.97-6.98,6.02-6.11,11.63-4.89,.53,.11,1.07,.23,1.61,.34l4.92,1-4.33-2.53c-2.63-1.53-6.66-3.67-11.29-4.57-1.3-.23-2.8-.38-4.6-.45h-.11l-.1,.02c-2.62,.58-4.88,1.83-6.64,3.64,.48-.78,1.03-1.51,1.67-2.19l1.42-1.51-2.07,.11c-1.69,.09-3.24,.21-4.74,.37-.32,.03-.65,.08-.97,.12l-.67,.08-.17,.04c-2.02,.7-3.8,2.01-5.29,3.84,.26-.52,.55-1.02,.86-1.5l1.41-1.96-1.97,.33c-2.32,.38-4.72,.85-7.14,1.38l-.19,.07c-1.58,.79-3.01,1.97-4.23,3.45,.2-.41,.42-.8,.66-1.19l1.07-1.75-1.99,.51c-2.41,.62-4.6,1.25-6.7,1.91l-.21,.1c-1.21,.8-2.25,1.86-3.14,3.03,.09-.19,.18-.38,.28-.57l.97-1.89-2,.74c-1.43,.53-2.83,1.09-4.16,1.68l-.56,.28c-1.44,1.04-2.65,2.29-3.64,3.6l1.28-2.68-2.52,1.71c-.87,.59-1.6,1.18-2.17,1.75-1.91,2-3.63,4.6-5.1,7.73-.89,1.89-1.7,3.95-2.49,6.31l-.43,1.28,1.34-.2c2.72-.41,5.55-.79,8.7-1.18-4.05,1.92-7.59,3.67-10.92,5.4l-.33,.17-.09,.35c-.38,1.45-.75,2.92-1.1,4.4l-.27,1.17,1.19-.15c3.14-.41,6.42-.77,9.95-1.1-4.29,1.85-8.14,3.62-11.7,5.37l-.36,.18-.08,.4c-.29,1.38-.57,2.78-.84,4.18l-.21,1.11,1.12-.12c3.38-.37,6.84-.66,10.51-.89-4.02,1.57-7.67,3.12-11.09,4.69l-.77-2.46-.6,3.29c-.27,1.45-.53,2.9-.79,4.37l-.19,1.07,1.08-.1c3.51-.31,7.07-.52,10.82-.64-4.05,1.43-7.78,2.89-11.33,4.41l-.77-2.56-1.53,8.81,1.05-.07c3.56-.24,7.17-.36,10.99-.36h.03c-4.43,1.4-8.5,2.87-12.37,4.46l-.42,.17-.97,5.72,1.03-.05c3.64-.17,7.33-.2,11.19-.08-4.47,1.26-8.57,2.61-12.46,4.1l-.45,.17-.08,.47c-.23,1.42-.45,2.85-.67,4.28l-.15,1,1-.04c2.15-.09,4.68-.17,7.16-.07,1.37,.06,2.75,.15,4.07,.25-1.36,.31-2.65,.62-3.93,.97-2.93,.79-5.85,1.85-8.41,2.78l-.47,.17-.07,.5c-.2,1.47-.39,2.94-.57,4.42l-.11,.95,.95-.02c2.82-.06,4.97-.03,6.96,.09,1.39,.1,2.77,.22,4.12,.36-1.35,.26-2.69,.55-4.02,.87-2.55,.62-5,1.4-7.9,2.38l-.51,.17-.05,.54c-.56,6.35-.95,13.79,.36,20.86,.75,3.82,1.98,7.02,3.66,9.52,.98,1.48,1.9,2.69,3.2,4.19,1.35,1.5,2.53,2.67,3.7,3.68,3.01,2.64,6.57,4.98,10.59,6.96l.87-1.4c-1.19-.91-2.23-1.75-3.17-2.57-4.38-3.82-7.77-8.46-9.81-13.41-.86-2.09-1.48-4.24-1.85-6.47,.55,1.82,1.26,3.58,2.13,5.28,2.26,4.41,5.85,8.55,10.39,11.97,2.85,2.15,6.03,4.02,9.99,5.9l6.3,2.98-5.42-4.37Zm65.32-71.57c.39-3.21,.77-6.42,1.17-9.63l.31-2.48c.56-4.6,1.14-9.27,1.7-13.96-.79,11.36-2.11,23.66-4.11,38.28-.88,6.46-1.84,12.29-2.92,17.73,1.45-9.99,2.67-20.11,3.85-29.93Zm-90.11,37.9c-1.29,6.75-.71,13.15,1.71,19.01,1.59,3.85,3.95,7.51,6.93,10.78-.98-.72-1.91-1.47-2.79-2.24-1.13-.97-2.26-2.09-3.55-3.52-1.23-1.43-2.12-2.59-3.06-4.01-1.56-2.32-2.71-5.32-3.41-8.91-1.23-6.67-.9-13.75-.38-19.87,2.64-.88,4.91-1.59,7.25-2.16,2.52-.61,5.09-1.09,7.71-1.55,0,.12,0,.24,0,.36,.02,1.58,.12,3.25,.32,5.25h1.65c.45-4.89,1.24-9.82,2.01-14.6l.44-2.76c1.09-6.87,2.23-14.24,3.21-21.58,.54-3.99,1.04-7.99,1.54-11.98,1.24-9.93,2.53-20.2,4.37-30.22,.25-1.35,.51-2.7,.77-4.04l.12-.64-.12-.04,1.01-3.04c1.01-3.07,2.87-7.15,5.96-9.26,1.49-.47,3.03-.92,4.66-1.37-.88,1.87-1.44,3.92-1.67,6.06l-2.2,6.17c-4.49,12.61-6.51,26.14-8.04,37.84l-.28,2.16c-1.75,13.23-3.55,26.9-3.46,40.39,.01,1.86,.12,3.78,.32,5.88h1.65c.17-1.85,.4-3.82,.74-6.3,2.64,.33,5.32,.54,7.93,.74,1.76,.14,3.52,.28,5.28,.45,6.64,.66,12.14,1.38,17.3,2.25l.83,.21c5,1.39,9.88,3.46,14.92,6.32,1.79,1.02,3.55,2.12,5.27,3.26-3.98-1.67-8.1-3.17-12.31-4.23l-.86-.22-.23,1.26c-.71,3.83-1.44,7.8-1.85,11.76-.11,1.02-.17,1.99-.2,2.91-.09-.89-.16-1.84-.19-2.84-.14-3.95,.03-7.97,.2-11.86l.07-1.72-.71-.13c-1.47-.27-2.97-.49-4.47-.63l-.82-.08-.08,.82c-1,9.64-.71,16.86,.95,23.39,2.04,8.03,8.98,15.01,15.57,19.48-1.88-.52-3.73-1.19-5.51-2.01-4.53-2.08-8.72-5.49-12.12-9.88-3.26-4.21-5.84-8.97-7.66-14.15-1.22-3.48-2.6-8.08-2.44-12.81l-1.64-.19c-1.03,5.12-.52,11.02,1.55,18.04,1.97,6.64,5.07,12.43,9.19,17.23-1.6-.88-3.1-1.88-4.54-3-4.83-3.78-8.82-9.03-11.55-15.17-2.58-5.81-3.76-11.26-3.5-16.21l-1.64-.18c-.87,5.27-.24,11.25,1.87,17.79,2.02,6.26,5.26,11.92,9.43,16.48-.29-.17-.56-.33-.84-.5-2.1-1.31-4.05-2.69-6.13-4.35-1.85-1.46-3.43-3.38-4.96-5.23l-.3-.37c-4.21-5.08-6.26-11.29-7.24-15.6-.49-2.17-.71-4.51-.67-7.37l-1.65-.14c-1.85,11.44,2.33,24.14,10.69,32.68-9.71-5.34-16.74-14.44-18.98-24.7-.44-2.02-.61-4.22-.55-7.14l-1.65-.16c-1.84,10.78,1.81,22.28,9.57,30.42-1.37-.83-2.64-1.69-3.85-2.6-4.34-3.27-7.77-7.21-9.91-11.4-2.48-4.86-3.58-10.18-3.36-16.25l-1.64-.19Zm-3.83-15.53c.12-.99,.25-1.97,.38-2.95,2.42-.88,5.12-1.84,7.81-2.57,1.99-.53,3.99-.99,6.28-1.49-.14,2.67-.22,5.32-.22,7.93-2.49-.31-5.29-.63-8.1-.82-1.36-.08-2.79-.12-4.44-.12-.54,0-1.1,0-1.7,.01Zm3.02-19.86l.47-2.79c4.01-1.63,8.24-3.13,12.88-4.57-.3,2.46-.59,4.93-.85,7.4-2.34-.1-4.61-.15-6.83-.15-1.92,0-3.8,.04-5.67,.11Zm15.59-56.57l1.61,.34c.83-2.59,2.82-7.37,6.69-10.17l.39-.19c.72-.32,1.46-.62,2.22-.93-.79,2.03-1.33,4.34-1.58,6.78l-.32,3.11-.54-.16c-.8,1.95-1.57,4.02-2.29,6.15-4.26,.5-7.92,.97-11.34,1.47,.63-1.77,1.28-3.37,1.98-4.85,1.25-2.66,2.68-4.91,4.24-6.69-.51,1.64-.87,3.36-1.07,5.12Zm-2.45,68.72l.05-.85c.2-3.16,.46-6.36,.78-9.54l.08-.78c.33-3.14,.69-6.28,1.08-9.41l.11-.89c.3-2.34,.6-4.68,.9-7.01l.43-3.29c.45-3.4,.9-6.44,1.38-9.29l.17-.98c.59-3.38,1.21-6.49,1.91-9.49l.19-.8c.59-2.48,1.24-4.89,1.93-7.2-1.36,8.28-2.4,16.64-3.42,24.78-.5,3.99-1,7.98-1.53,11.97-.99,7.33-2.12,14.68-3.21,21.55l-.44,2.75c-.21,1.31-.42,2.63-.63,3.96,.04-1.81,.12-3.64,.22-5.48Zm7.79-61.19c-.78,2.52-1.51,5.16-2.17,7.89-4.04,.34-7.75,.73-11.27,1.17,.23-.95,.47-1.89,.71-2.83,3.8-1.97,7.89-3.97,12.73-6.23Zm-15.07,16.44c3.69-1.81,7.7-3.64,12.21-5.57-.52,2.35-1,4.77-1.45,7.35-3.97,.22-7.69,.51-11.29,.88,.18-.89,.36-1.78,.54-2.66Zm-1.93,9.99c3.73-1.73,7.72-3.41,12.16-5.14-.36,2.25-.71,4.63-1.06,7.21-4.04,.09-7.85,.28-11.59,.59,.16-.89,.32-1.78,.48-2.66Zm-1.76,9.92c3.88-1.68,7.97-3.28,12.47-4.85l-.13,1c-.27,2.09-.54,4.19-.81,6.28-4.2-.04-8.14,.05-12.01,.29l.47-2.72Zm-3.36,19.78c4.15-1.58,8.55-2.99,13.4-4.31-.24,2.52-.45,5.05-.61,7.56-2.13-.19-4.52-.38-6.93-.49-.83-.03-1.66-.04-2.48-.04-1.32,0-2.62,.03-3.82,.08,.14-.94,.29-1.87,.44-2.8Zm50.04-80.72c-1.3,2.42-2.07,5.27-2.3,8.47l-.45,6.37c-2.67,.69-5.42,1.55-8.27,2.57-1.15,.41-2.3,.86-3.44,1.35,.06-.4,.12-.79,.18-1.19,.12-.78,.23-1.55,.33-2.33l.4-3.14-.24,5.02,1.98-7.03c1.17-4.18,3.61-7.48,6.69-9.07,1.73-.38,3.45-.72,5.14-1.03Zm7.59-1.13c.31-.04,.63-.08,.93-.11,.89-.09,1.8-.17,2.76-.24-1.77,2.45-2.74,5.37-2.84,8.55l-.17,5.77c-3.43,.33-6.95,.96-10.64,1.91l1.7-5.99c.84-2.94,2.95-8.11,7.67-9.81l.59-.07Zm15.63-.13c1.82,.35,3.67,.92,5.62,1.75-4.02-.44-7.66,.47-9.45,6.81-.44,1.57-.87,3.37-1.28,5.35-3.04-.4-6.36-.12-9.06,.11-.13,.01-.27,.02-.4,.04l1.43-5.5c1.22-4.7,4.46-7.96,8.89-8.98,1.67,.07,3.07,.2,4.25,.41Zm-5.66,21.42c5.12,1.53,9.54,3.67,13.5,6.54,1.85,1.34,3.68,2.77,5.53,4.34-1.97-1.13-3.87-2.13-5.75-3.02-3.79-1.93-8.15-3.23-12.91-3.85l-.2-.04c-.36-.07-.73-.13-1.09-.18-1.69-.22-3.44-.34-5.29-.34-3.53,0-7.43,.41-11.9,1.25-3.56,.68-6.73,1.47-9.69,2.4-1.41,.45-2.79,.89-4.17,1.44-.1,.04-.71,.31-1.35,.6,.32-2.73,.65-5.46,1-8.19,4.49,.04,8.96-.3,13.32-.6,6.23-.44,12.68-.9,19-.34Zm-16.24,10.97l.76-.03c3.14-.13,6.83-.24,10.43-.05l1.01,.05c.66,.03,1.34,.06,2,.11l.49,.14c1.92,.56,3.48,1.08,4.9,1.64,2.11,.84,4.12,2.01,6.06,3.15l.47,.28,.27-.25-.18,.3c2.77,1.67,5.36,3.59,7.81,5.61-3.87-2.15-8.04-4.11-12.48-5.42l-.19-.06c-1.79-.53-3.65-1.08-5.51-1.21-.41-.04-.89-.12-1.34-.22l-.91-.12v.06c-.42-.06-.84-.12-1.26-.16-5.49-.57-11.81-.13-18.79,1.32-3.08,.64-6.17,1.47-9.17,2.45l-.32,.1c-.74,.23-1.55,.49-2.32,.82v-.07c.31-2.58,.6-5.17,.9-7.76,.46,0,1.04-.04,1.77-.11,.21-.02,.38-.04,.47-.04,1.61-.03,3.22-.08,4.83-.13,3.43-.11,6.87-.26,10.3-.4Zm-6.92,11.02c2.62-.06,5.24-.11,7.86-.12,2.77,0,6.03,.01,9.31,.21,.7,.13,1.41,.17,2.1,.2,.18,.01,.36,.02,.54,.03l.53,.16c3.72,1.12,7.23,2.65,11.05,4.81h0l.11,.06,.28-.27-.19,.33c2.76,1.6,5.33,3.43,7.94,5.51-3.95-2.12-7.98-3.94-12.27-5.16-1.99-.56-3.93-.99-5.93-1.31-.19-.03-.66-.11-1.12-.24l-.97-.13v.08c-.76-.12-1.45-.21-2.11-.27-6.06-.54-12.64-.11-19.57,1.26-3.16,.62-6.25,1.45-9.2,2.46-.26,.09-.61,.22-.96,.36,.31-2.63,.62-5.26,.92-7.89,.2,0,.43,0,.67,0,3.67,.06,7.39-.02,10.99-.1Zm8.4,10.91l1.81,.04c2.75,.05,5.58,.11,8.24,.53v.1l.65,.21c3.61,1.11,7.04,2.58,10.81,4.65h0l.13,.08h0c2.85,1.6,5.51,3.43,8.03,5.37-3.96-2.05-8.06-3.85-12.38-4.96-1.79-.49-3.52-.82-5.62-1.2l-.34-.05c-.25-.04-.5-.07-.74-.1l-.04-.03-.46,.02c-1.42-.28-2.83-.48-4.19-.59-6.79-.53-13.67-.07-20.45,1.39-3.02,.65-5.51,1.33-7.74,2.12,.34-2.61,.67-5.21,.99-7.82,.05,0,.09,0,.13,0h.19c.81,.04,1.61,.05,2.4,.06,3.13,.08,6.26,.09,9.39,.1,3.07,0,6.13,.02,9.2,.1Zm-.36,11.07l.91,.05c2.67,.13,5.42,.27,8.07,.69v.08l.66,.21c3.5,1.07,7,2.55,10.69,4.51h0l.16,.08h0c2.88,1.55,5.56,3.34,8.17,5.28-4.04-1.99-8.33-3.79-12.82-4.91-2.1-.55-4.11-.94-6.13-1.19-.21-.03-.36-.04-.48-.07l-.84-.08h0c-1.28-.24-2.55-.42-3.83-.55-6.79-.69-14.01-.31-20.87,1.1-2.78,.57-5.08,1.17-7.1,1.85,.39-2.62,.77-5.25,1.13-7.88,.11,.01,.22,.02,.32,.03,1.28,.08,2.56,.12,3.84,.16l4.18,.12c4.58,.13,9.31,.26,13.96,.5Zm-1.96,10.98l1.64,.12c2.47,.19,5.02,.38,7.48,.77v.06l.7,.21c3.61,1.07,7.1,2.51,11.01,4.53h.02c2.96,1.54,5.76,3.36,8.41,5.25-4.18-1.96-8.63-3.75-13.28-4.86-2.01-.51-3.84-.85-5.61-1.05-.1,0-.24-.01-.41-.02h-.1c-.81-.16-1.63-.32-2.46-.44-5.42-.83-11.19-.98-17.14-.45-2.79,.25-5.71,.71-8.92,1.41-1.33,.25-2.63,.65-3.88,1.03l-.19,.06c-.06,.02-.18,.04-.32,.07-.02,0-.04,0-.06,.01,.42-2.67,.83-5.33,1.24-7.99,.32,.05,.59,.07,.64,.07,1.17,.09,2.55,.15,3.72,.21l3.69,.19c4.53,.22,9.21,.45,13.8,.81Zm-9.2,10.3l1.12,.09c5.05,.4,10.26,.82,15.31,1.66l.71,.2c3.67,1.05,7.28,2.5,11.37,4.55h0c3.01,1.5,5.87,3.3,8.64,5.23-4.26-1.88-8.72-3.58-13.39-4.77-2.19-.56-4.09-.9-5.81-1.06l-.95-.11c-4-.73-8.93-1.34-14.33-1.34-5.75,0-12.02,.68-18.26,2.63,.31-2.06,.64-4.11,.96-6.16l.33-2.05c.61,.09,1.23,.17,1.32,.17,.94,.08,1.88,.14,2.82,.21l3.93,.28c2.07,.15,4.14,.3,6.22,.46Zm-9.82-46.55l-.27,2.32c-.39,3.43-.79,6.86-1.21,10.28l-.12,1.03c-.38,3.11-.77,6.22-1.19,9.32l-.05,.39c-.45,3.38-.94,6.75-1.45,10.12l-.06,.39c-.51,3.37-1.04,6.75-1.57,10.12l-.52,3.24c-.23,1.42-.46,2.85-.68,4.27,.3-11.79,1.87-23.7,3.4-35.26l.28-2.16c1.14-8.69,2.55-18.39,5.04-27.94-.19,1.53-.37,3.05-.55,4.58l-.05,.46c-.02,.2-.05,.41-.07,.61l-.2,1.7h0c-.25,2.18-.5,4.36-.76,6.54Z"/><path class="b" d="M1463.01,818.31c-1.49-1.69-2.4-4.01-2.48-6.36-.09-2.61,.71-5.09,2.23-7,1.44-1.8,3.28-2.97,6.16-3.9l2.96-.96-3.04-.64c-3.03-.64-6.05,.08-8.51,2.01-2.92,2.3-4.81,6.15-4.92,10.13,.28,3.98,1.66,7.12,4.1,9.32h0c2.08,1.87,4.62,2.86,7.21,2.86,.73,0,1.47-.08,2.2-.24l3.04-.67-2.97-.93c-2.02-.64-4.31-1.56-5.98-3.62Zm-2.39,1.37c-2.15-1.93-3.31-4.62-3.56-8.12,.1-3.41,1.74-6.78,4.29-8.79,.82-.65,1.94-1.32,3.34-1.66-1.28,.77-2.33,1.69-3.23,2.81-1.77,2.22-2.69,5.09-2.59,8.09,.1,2.73,1.15,5.43,2.87,7.38,.85,1.05,1.85,1.85,2.88,2.46-1.44-.36-2.81-1.1-4.01-2.17Z"/><path class="b" d="M1441.85,818.29v-15.12l-1.65-.11c-1.41,11.07-2.14,23.38-2.3,38.75-.1,10.05-.14,20.1-.18,30.15-.02,4.85-.04,9.69-.06,14.54-.07,13.12,.02,27.12,.26,44.05,.06,4.2,.14,8.41,.22,12.62l.12,6.76c.04,2.19,.09,4.39,.15,6.58l.03,1.3v.33c0,.3,0,.61,.03,.79,.03,1.08,.87,1.89,1.97,1.89h.04c1.12-.02,1.95-.86,1.95-1.95l-.29-53.49c-.15-27.68-.29-57.21-.29-87.09Zm-1.08,140.59c0,.07,0,.28-.32,.29h-.01c-.31,0-.31-.21-.32-.38-.03-.2-.02-.41-.02-.62v-.39l-.03-1.31c-.06-2.19-.11-4.38-.15-6.57l-.12-6.77c-.08-4.2-.16-8.41-.22-12.61,0-.2,0-.39,0-.58-.24-16.66-.32-30.48-.26-43.43,.03-4.85,.05-9.69,.06-14.54,.04-10.05,.08-20.09,.18-30.14,.08-7.38,.28-14.04,.64-20.21,.01,28.75,.15,57.11,.29,83.76l.13,24.63,.16,28.85Z"/><path class="b" d="M1469.28,860.39c-2.52,5.25-8.01,8.8-12.42,11.64l.77,1.46c4.15-1.76,9.86-5.02,13.47-10.6,4.58-7.06,.28-15.25-2.68-19.5l-1.43,.83c2.51,5.22,4.96,11.2,2.29,16.16Z"/><path class="b" d="M1461.14,832.84l-.23-.81-.81,.25c-.22,.07-.46,.13-.69,.18l-.53,.14c-.44,.1-.89,.19-1.36,.27l-.41,.08c-.61,.09-1.23,.17-1.9,.22l.06,.83-.32-.81-.77,.06v39.26l1.26-.75c4.98-2.99,9.98-6.33,12.81-10.42,3.55-5.13,1.35-10.34-2.71-18.3-1.58-3.09-3.37-6.6-4.4-10.2Zm-5.29,36.73v-34.79c.52-.05,1.02-.11,1.51-.19l.45-.08c.5-.09,.99-.18,1.46-.29l.52-.14c1.1,3.47,2.78,6.77,4.28,9.72,3.76,7.39,5.92,12.14,2.83,16.6-2.42,3.5-6.66,6.48-11.05,9.18Z"/></g></g></svg>