<?xml version="1.0" encoding="UTF-8"?><svg id="a" xmlns="http://www.w3.org/2000/svg" viewBox="0 0 1668 2388"><defs><style>.b,.c{fill:#fff;}.b,.d{font-family:TimesNewRomanPSMT, Times New Roman;}.e{fill:#e42129;}.d{font-size:117px;}.f{letter-spacing:-.1em;}.g{font-size:120px;}.h{letter-spacing:-.08em;}.i{letter-spacing:-.06em;}.j{font-size:61px;}</style></defs><rect class="c" x="-40.71" y="-34.41" width="1722.35" height="1954.35"/><path d="M1665.46,254.3c-3.39,10.94-7.96,21.36-13.58,31.11-26.47,45.87-76.02,76.75-132.79,76.75H158.79c-.73-.04-1.47-.06-2.21-.08-1.85-.07-3.71-.11-5.57-.11C74.76,361.96,11.53,417.65-.23,490.58L0,2388H1668V254.3h-2.54Z"/><text class="d" transform="translate(194.81 241.53)"><tspan x="0" y="0">My </tspan><tspan class="e" x="191.78" y="0">excellent</tspan><tspan x="614.02" y="0" xml:space="preserve"> moment</tspan></text><text class="b" transform="translate(560.72 681.55)"><tspan class="g"><tspan x="0" y="0">Thank you.</tspan></tspan><tspan class="j"><tspan class="f" x="-151.37" y="188">Y</tspan><tspan x="-113.42" y="188">our recording has been uploaded. </tspan></tspan><tspan class="j"><tspan x="-187.9" y="268">Please visit &quot;xxx.com&quot; to listen to our </tspan></tspan><tspan class="j"><tspan x="-234.06" y="348">growing collection of excellent moments. </tspan></tspan><tspan class="j"><tspan class="h" x="-200.84" y="428">W</tspan><tspan x="-148.15" y="428">e look forward to hearing your stor</tspan><tspan class="i" x="705.61" y="428">y</tspan><tspan x="732.15" y="428">.</tspan></tspan></text></svg>