<?xml version="1.0" encoding="UTF-8"?><svg xmlns="http://www.w3.org/2000/svg" viewBox="0 0 60 60"><defs><style>.c{fill:#fff;}.d{fill:#e42129;}.e{fill:none;stroke:#e42129;stroke-miterlimit:10;stroke-width:.76px;}</style></defs><g id="a"/><g id="b"><circle class="d" cx="30" cy="30" r="22.5"/><g><path class="c" d="M19.4,23.43c-2.25-.28-2.62-.85-1.94-2.93,.81-2.48,.96-2.59,3.57-2.59,1.48,0,2.95,0,4.54,0,0-.56,0-1.07,0-1.59,.02-1.35,.68-2.02,2.01-2.03,1.61,0,3.23,0,4.84,0,1.28,0,1.96,.69,1.98,1.99,0,.52,0,1.03,0,1.62,1.62,0,3.16,0,4.71,0,.43,0,.87,0,1.29,.03,.8,.07,1.37,.49,1.65,1.24,.28,.72,.52,1.46,.72,2.2,.27,1-.3,1.83-1.33,1.95-.44,.05-.57,.21-.6,.62-.45,5.78-.92,11.56-1.39,17.34-.06,.7-.1,1.41-.23,2.1-.25,1.34-1.31,2.28-2.67,2.29-4.25,.03-8.51,.03-12.76,0-1.55-.01-2.65-1.12-2.78-2.73-.46-5.51-.9-11.02-1.35-16.52-.08-1-.17-1.99-.26-3.01Zm1.88-.02c.01,.3,.02,.54,.04,.79,.49,6.08,.99,12.15,1.48,18.23,.1,1.18,.34,1.43,1.51,1.43,3.89,0,7.78,0,11.67,0,1.18,0,1.42-.23,1.52-1.42,.5-6.19,1-12.38,1.49-18.57,.01-.15-.02-.3-.03-.45H21.29Zm-2.2-1.92h21.8c-.1-.31-.22-.55-.26-.81-.13-.77-.55-.95-1.32-.95-5.75,.04-11.5,.02-17.26,.02-.64,0-1.27-.02-1.91,.01-.19,0-.47,.12-.54,.27-.21,.44-.33,.93-.51,1.46Zm13.41-5.32h-5.02v1.68h5.02v-1.68Z"/><path class="c" d="M26.07,36.13c.1,1.84,.19,3.68,.3,5.52,.03,.52-.06,.97-.61,1.16-.6,.22-1.16-.17-1.21-.89-.13-1.88-.24-3.76-.35-5.65-.19-3.38-.36-6.76-.54-10.15-.01-.23-.03-.45-.03-.68,0-.56,.28-.92,.85-.96,.56-.04,.92,.27,.97,.83,.09,1,.15,1.99,.2,2.99,.14,2.61,.28,5.22,.42,7.83Z"/><path class="c" d="M34.1,32.73c.1-1.74,.23-4.46,.42-7.18,.02-.32,.2-.73,.44-.93,.52-.42,1.29-.03,1.37,.65,.03,.27,0,.54,0,.82-.27,5.2-.54,10.4-.82,15.59-.05,.93-.65,1.43-1.34,1.09-.49-.24-.54-.68-.52-1.16,.14-2.63,.27-5.27,.45-8.88Z"/><path class="c" d="M30.93,33.75c0,2.57,0,5.14,0,7.71,0,.25,.06,.58-.07,.73-.24,.28-.6,.61-.91,.61-.28,0-.59-.38-.82-.65-.1-.13-.05-.39-.05-.6,0-5.26,0-10.51,0-15.77,0-.18,0-.37,.02-.54,.08-.5,.4-.76,.89-.77,.49,0,.82,.25,.91,.75,.04,.22,.03,.45,.03,.68,0,2.62,0,5.23,0,7.85Z"/></g><circle class="e" cx="30" cy="30" r="25.8"/></g></svg>