<?xml version="1.0" encoding="UTF-8"?><svg xmlns="http://www.w3.org/2000/svg" viewBox="0 0 60 60"><defs><style>.c{fill:#fff;}.d{fill:#e42129;}</style></defs><g id="a"/><g id="b"><circle class="d" cx="30" cy="30" r="22.5"/><g><path class="c" d="M21.17,24.52c-1.88-.23-2.18-.71-1.62-2.45,.67-2.06,.8-2.16,2.98-2.16,1.23,0,2.46,0,3.78,0,0-.47,0-.89,0-1.32,.01-1.12,.57-1.68,1.68-1.69,1.35,0,2.69,0,4.04,0,1.07,0,1.63,.58,1.65,1.66,0,.43,0,.86,0,1.35,1.35,0,2.64,0,3.92,0,.36,0,.72,0,1.08,.02,.67,.06,1.14,.41,1.38,1.03,.23,.6,.44,1.21,.6,1.84,.22,.83-.25,1.53-1.11,1.63-.37,.04-.47,.17-.5,.52-.38,4.82-.77,9.63-1.16,14.45-.05,.58-.09,1.17-.19,1.75-.21,1.12-1.09,1.9-2.23,1.91-3.54,.02-7.09,.03-10.63,0-1.29,0-2.21-.94-2.32-2.27-.38-4.59-.75-9.18-1.12-13.77-.07-.83-.14-1.66-.21-2.51Zm1.57-.01c.01,.25,.01,.45,.03,.66,.41,5.06,.82,10.13,1.23,15.19,.08,.99,.28,1.19,1.26,1.19,3.24,0,6.48,0,9.73,0,.98,0,1.19-.19,1.27-1.18,.42-5.16,.83-10.32,1.24-15.48,0-.12-.01-.25-.02-.38h-14.73Zm-1.83-1.6h18.16c-.08-.25-.18-.46-.22-.68-.11-.64-.46-.79-1.1-.79-4.79,.03-9.59,.02-14.38,.02-.53,0-1.06-.02-1.59,.01-.16,0-.39,.1-.45,.22-.17,.37-.28,.77-.43,1.22Zm11.18-4.43h-4.18v1.4h4.18v-1.4Z"/><path class="c" d="M26.73,35.11c.08,1.53,.16,3.06,.25,4.6,.02,.43-.05,.8-.51,.97-.5,.18-.96-.14-1.01-.74-.11-1.57-.2-3.14-.29-4.71-.16-2.82-.3-5.64-.45-8.45-.01-.19-.02-.38-.02-.57,0-.46,.23-.77,.7-.8,.47-.03,.77,.22,.81,.69,.07,.83,.12,1.66,.17,2.49,.12,2.17,.23,4.35,.35,6.53Z"/><path class="c" d="M33.42,32.28c.08-1.45,.2-3.72,.35-5.99,.02-.27,.16-.61,.37-.77,.43-.35,1.07-.03,1.14,.54,.03,.22,0,.45,0,.68-.23,4.33-.45,8.66-.68,12.99-.04,.78-.54,1.19-1.11,.91-.41-.2-.45-.56-.43-.97,.12-2.19,.22-4.39,.38-7.4Z"/><path class="c" d="M30.78,33.13c0,2.14,0,4.29,0,6.43,0,.21,.05,.48-.06,.61-.2,.23-.5,.5-.76,.51-.23,0-.49-.31-.68-.54-.09-.1-.04-.33-.04-.5,0-4.38,0-8.76,0-13.14,0-.15,0-.31,.02-.45,.07-.41,.33-.64,.74-.64,.41,0,.68,.21,.76,.62,.03,.18,.03,.38,.03,.57,0,2.18,0,4.36,0,6.54Z"/></g></g></svg>