<?xml version="1.0" encoding="UTF-8"?><svg id="a" xmlns="http://www.w3.org/2000/svg" xmlns:xlink="http://www.w3.org/1999/xlink" viewBox="0 0 899 624"><defs><style>.ak{fill:url(#t);}.al{font-size:45px;}.al,.am{font-family:TimesNewRomanPSMT, Times New Roman;}.an{fill:#fff;}.ao{fill:url(#r);}.ap{fill:url(#ai);}.aq{fill:#e42129;}.ar{fill:url(#y);}.as{fill:url(#l);}.at{fill:url(#af);}.au{fill:url(#c);}.av{fill:url(#u);}.aw{fill:url(#ah);}.ax{fill:url(#v);}.ay{fill:url(#a`);}.b`{fill:url(#m);}.ba{fill:url(#f);}.bb{fill:url(#ae);}.bc{fill:url(#p);}.bd{fill:url(#g);}.be{fill:url(#ad);}.bf{fill:url(#ab);}.bg{fill:url(#b);}.bh{fill:url(#i);}.bi{fill:url(#aj);}.bj{fill:url(#h);}.bk{fill:url(#d);}.bl{fill:url(#e);}.bm{fill:url(#x);}.bn{fill:url(#aa);}.bo{fill:url(#s);}.bp{fill:url(#n);}.bq{fill:url(#ac);}.br{fill:url(#w);}.bs{fill:url(#j);}.am{font-size:23px;}.bt{fill:url(#o);}.bu{fill:url(#q);}.bv{fill:url(#ag);}.bw{fill:url(#k);}</style><linearGradient id="b" x1="84.77" y1="428.26" x2="814.23" y2="428.26" gradientTransform="matrix(1, 0, 0, 1, 0, 0)" gradientUnits="userSpaceOnUse"><stop offset="0" stop-color="#e42129"/><stop offset=".11" stop-color="#7d4296"/><stop offset=".22" stop-color="#055ba9"/><stop offset=".33" stop-color="#31a4a0"/><stop offset=".44" stop-color="#c83d96"/><stop offset=".56" stop-color="#4aa146"/><stop offset=".67" stop-color="#1e9bd7"/><stop offset=".78" stop-color="#90967d"/><stop offset=".89" stop-color="#e66e25"/><stop offset="1" stop-color="#516a7d"/></linearGradient><linearGradient id="c" x1="84.77" y1="422.74" x2="814.23" y2="422.74" xlink:href="#b"/><linearGradient id="d" x1="84.77" y1="410.13" x2="814.23" y2="410.13" xlink:href="#b"/><linearGradient id="e" x1="84.77" y1="412.12" x2="814.23" y2="412.12" xlink:href="#b"/><linearGradient id="f" x1="84.77" y1="464.25" x2="814.23" y2="464.25" xlink:href="#b"/><linearGradient id="g" x1="84.77" y1="444.56" x2="814.23" y2="444.56" xlink:href="#b"/><linearGradient id="h" x1="84.77" y1="412.12" x2="814.23" y2="412.12" xlink:href="#b"/><linearGradient id="i" x1="84.77" y1="413.38" x2="814.23" y2="413.38" xlink:href="#b"/><linearGradient id="j" x1="84.77" y1="406.31" x2="814.23" y2="406.31" xlink:href="#b"/><linearGradient id="k" x1="84.77" y1="404.75" x2="814.23" y2="404.75" xlink:href="#b"/><linearGradient id="l" x1="84.77" y1="427.13" x2="814.23" y2="427.13" xlink:href="#b"/><linearGradient id="m" x1="84.77" y1="428.83" x2="814.23" y2="428.83" xlink:href="#b"/><linearGradient id="n" x1="84.77" y1="411.83" x2="814.23" y2="411.83" xlink:href="#b"/><linearGradient id="o" x1="84.77" y1="421.25" x2="814.23" y2="421.25" xlink:href="#b"/><linearGradient id="p" x1="84.77" y1="464.25" x2="814.23" y2="464.25" xlink:href="#b"/><linearGradient id="q" x1="84.77" y1="431.67" x2="814.23" y2="431.67" xlink:href="#b"/><linearGradient id="r" x1="84.77" y1="428.83" x2="814.23" y2="428.83" xlink:href="#b"/><linearGradient id="s" x1="84.77" y1="408.63" x2="814.23" y2="408.63" xlink:href="#b"/><linearGradient id="t" x1="84.77" y1="425.08" x2="814.23" y2="425.08" xlink:href="#b"/><linearGradient id="u" x1="84.77" y1="422.32" x2="814.23" y2="422.32" xlink:href="#b"/><linearGradient id="v" x1="84.77" y1="457.83" x2="814.23" y2="457.83" xlink:href="#b"/><linearGradient id="w" x1="84.77" y1="405.6" x2="814.23" y2="405.6" xlink:href="#b"/><linearGradient id="x" x1="84.77" y1="405.65" x2="814.23" y2="405.65" xlink:href="#b"/><linearGradient id="y" x1="84.77" y1="405.6" x2="814.23" y2="405.6" xlink:href="#b"/><linearGradient id="a`" x1="84.77" y1="399.47" x2="814.23" y2="399.47" xlink:href="#b"/><linearGradient id="aa" x1="84.77" y1="457.87" x2="814.23" y2="457.87" xlink:href="#b"/><linearGradient id="ab" x1="84.77" y1="404.18" x2="814.23" y2="404.18" xlink:href="#b"/><linearGradient id="ac" x1="84.77" y1="422.88" x2="814.23" y2="422.88" xlink:href="#b"/><linearGradient id="ad" x1="84.77" y1="413.38" x2="814.23" y2="413.38" xlink:href="#b"/><linearGradient id="ae" x1="84.77" y1="411.55" x2="814.23" y2="411.55" xlink:href="#b"/><linearGradient id="af" x1="84.77" y1="408.72" x2="814.23" y2="408.72" xlink:href="#b"/><linearGradient id="ag" x1="84.77" y1="399.93" x2="814.23" y2="399.93" xlink:href="#b"/><linearGradient id="ah" x1="84.77" y1="443.28" x2="814.23" y2="443.28" xlink:href="#b"/><linearGradient id="ai" x1="84.77" y1="422.32" x2="814.23" y2="422.32" xlink:href="#b"/><linearGradient id="aj" x1="84.77" y1="423.17" x2="814.23" y2="423.17" xlink:href="#b"/></defs><path class="an" d="M0,0V453.51c2.59-4.57,5.95-9.15,10.36-13.31,13.69-12.93,33.65-18.67,59.32-17.08H440.43v0l15.21,.04h370.78c25.4,1.59,45.11-4.07,58.59-16.79,6.95-6.56,11.28-14.16,13.99-21.1V0H0Z"/><path d="M885.01,406.37c-13.48,12.73-33.19,18.38-58.59,16.79H455.64l-15.21-.04v0H69.67c-25.66-1.59-45.62,4.15-59.32,17.08-4.41,4.16-7.77,8.74-10.36,13.31v170.49H899v-238.73c-2.71,6.94-7.05,14.55-13.99,21.1Z"/><text class="al" transform="translate(56.4 78.3)"><tspan x="0" y="0">My </tspan><tspan class="aq" x="73.76" y="0">excellent</tspan><tspan x="236.16" y="0" xml:space="preserve"> moment</tspan></text><text class="am" transform="translate(56.4 131.18)"><tspan x="0" y="0">Description of the intent of the project and expectations goes here. </tspan><tspan x="0" y="27.6">Lorem ipsum dolor sit consectetuer adipiscing elit, sed diam nonummy </tspan><tspan x="0" y="55.2" xml:space="preserve">nibh euismod tincidunt. Lorem ipsum dolor sit  consectetuer adipiscing </tspan><tspan x="0" y="82.8" xml:space="preserve">elit, sed diam nonummy nibh euismod tincidunt. Lorem ipsum dolor sit  </tspan><tspan x="0" y="110.4" xml:space="preserve">consectetuer adipiscing elit, sed diam nonummy  euismod tincidunt.</tspan></text><g><rect class="bg" x="320.14" y="394.82" width="10.92" height="66.88"/><rect class="au" x="340.79" y="404.75" width="10.92" height="35.98"/><rect class="bk" x="258.18" y="361.4" width="10.92" height="97.46"/><rect class="bl" x="278.84" y="339.87" width="10.92" height="144.49"/><rect class="ba" x="299.49" y="414.67" width="10.92" height="99.16"/><rect class="bd" x="423.39" y="414.67" width="10.92" height="59.78"/><rect class="bj" x="402.74" y="369.34" width="10.92" height="85.56"/><rect class="bh" x="382.09" y="382.37" width="10.92" height="62.03"/><rect class="bs" x="237.53" y="371.89" width="10.92" height="68.85"/><rect class="bw" x="113.63" y="307.57" width="10.92" height="194.35"/><rect class="as" x="134.28" y="389.73" width="10.92" height="74.8"/><rect class="b`" x="92.98" y="395.97" width="10.92" height="65.73"/><rect class="bp" x="154.93" y="339.3" width="10.92" height="145.06"/><rect class="bt" x="444.04" y="401.78" width="10.92" height="38.95"/><rect class="bc" x="175.58" y="414.67" width="10.92" height="99.16"/><rect class="bu" x="216.88" y="411.83" width="10.92" height="39.66"/><rect class="ao" x="196.23" y="395.97" width="10.92" height="65.73"/><rect class="bo" x="361.44" y="351.2" width="10.92" height="114.85"/><rect class="ak" x="712.5" y="405.6" width="10.92" height="38.95"/><rect class="av" x="691.85" y="389.73" width="10.92" height="65.16"/><rect class="ax" x="671.2" y="408.63" width="10.92" height="98.4"/><rect class="br" x="650.55" y="332.5" width="10.92" height="146.19"/><rect class="bm" x="753.8" y="353.47" width="10.92" height="104.36"/><rect class="ar" x="774.46" y="332.5" width="10.92" height="146.19"/><rect class="ay" x="733.15" y="364.8" width="10.92" height="69.34"/><rect class="bn" x="795.11" y="408.72" width="10.92" height="98.31"/><rect class="bf" x="629.9" y="353.47" width="10.92" height="101.43"/><rect class="bq" x="464.69" y="410.13" width="10.92" height="25.5"/><rect class="be" x="505.99" y="382.37" width="10.92" height="62.03"/><rect class="bb" x="526.65" y="368.2" width="10.92" height="86.7"/><rect class="at" x="485.34" y="388.6" width="10.92" height="40.23"/><rect class="bv" x="609.25" y="303.04" width="10.92" height="193.79"/><rect class="aw" x="547.3" y="414.67" width="10.92" height="57.23"/><rect class="ap" x="588.6" y="389.73" width="10.92" height="65.16"/><rect class="bi" x="567.95" y="403.05" width="10.92" height="40.23"/></g></svg>
