<?xml version="1.0" encoding="UTF-8"?><svg xmlns="http://www.w3.org/2000/svg" viewBox="0 0 899 624"><defs><style>.c{fill:#fff;}.d{fill:#e42129;}.e{fill:#7d4296;}.f{fill:none;}.g{fill:#516a7d;}</style></defs><g id="a"><path class="c" d="M0,0V453.51c2.59-4.57,5.95-9.15,10.36-13.31,13.69-12.93,33.65-18.67,59.32-17.08H440.43v0l15.21,.04h370.78c25.4,1.59,45.11-4.07,58.59-16.79,6.95-6.56,11.28-14.16,13.99-21.1V0H0Z"/><circle class="e" cx="766.63" cy="290.86" r="92.37"/><path d="M885.01,406.37c-13.48,12.73-33.19,18.38-58.59,16.79H455.64l-15.21-.04v0H69.67c-25.66-1.59-45.62,4.15-59.32,17.08-4.41,4.16-7.77,8.74-10.36,13.31v170.49H899v-238.73c-2.71,6.94-7.05,14.55-13.99,21.1Z"/><g><path class="f" d="M758.91,395.26c.04,2.54,.08,5.07,.13,7.61l.08,4.08c.02,1.32,.06,2.64,.09,3.96l.02,.79v.23c0,.13,0,.26,.01,.38,0,.1,0,.23,.2,.23h0c.19,0,.19-.13,.19-.17l-.09-17.41c-.21-.02-.42-.03-.63-.05v.35Z"/><path class="f" d="M780.72,429.38c1.61-.29,3.2-.62,4.78-.98-12.28,1.75-25.25,2.06-38.69,.93-6.49-.54-12.48-1.5-17.79-2.85-1.83-.47-3.9-1.03-6.07-1.77,4.62,1.99,9.25,3.15,12.87,3.92,8.28,1.76,17.07,2.58,26.16,2.41,7.1-.13,13.23-.67,18.75-1.66Z"/><path class="f" d="M753.9,395.82v-1.44c-2.16-.28-4.3-.64-6.41-1.07,.1,.95,.24,1.92,.47,2.92,1.96-.18,3.95-.32,5.94-.41Z"/><path class="g" d="M756.95,226.5l-1.19,4.24,.15-3.03-.24,1.89c-.06,.47-.13,.94-.2,1.41-.04,.24-.07,.48-.11,.72,.69-.3,1.39-.57,2.08-.82,1.73-.62,3.38-1.13,4.99-1.55l.27-3.84c.14-1.93,.6-3.65,1.39-5.11-1.02,.18-2.06,.39-3.1,.62-1.86,.96-3.33,2.95-4.04,5.47Z"/><path class="g" d="M743.66,247.55c-2.68,1.04-5.09,2.06-7.34,3.1-.1,.53-.19,1.07-.29,1.61,2.26-.19,4.55-.31,6.99-.36,.21-1.56,.42-2.99,.64-4.35Z"/><path class="g" d="M736.76,270.24c1.45,.06,2.9,.18,4.18,.29,.1-1.51,.22-3.04,.37-4.56-2.93,.79-5.58,1.65-8.08,2.6-.09,.56-.18,1.13-.27,1.69,.72-.03,1.5-.05,2.3-.05,.49,0,.99,0,1.49,.03Z"/><path class="g" d="M751.75,258.09c-.06,0-.13,0-.2-.02-.22,1.59-.44,3.17-.68,4.75,1.22-.41,2.61-.77,4.29-1.12,4.14-.85,8.5-1.08,12.6-.67,.77,.08,1.53,.19,2.31,.33h0l.51,.05c.08,.01,.17,.03,.29,.04,1.22,.15,2.43,.38,3.7,.72,2.71,.67,5.3,1.76,7.74,2.96-1.57-1.17-3.2-2.25-4.93-3.18h0l-.1-.05h0c-2.23-1.18-4.34-2.08-6.45-2.72l-.41-.12v-.05c-1.59-.25-3.25-.34-4.86-.42l-.55-.03c-2.8-.15-5.66-.23-8.42-.3l-2.52-.07c-.77-.02-1.55-.05-2.32-.09Z"/><path class="g" d="M742.21,258.1c.16-1.27,.32-2.53,.49-3.79l.08-.6c-2.72,.95-5.19,1.91-7.53,2.93l-.29,1.64c2.33-.14,4.71-.2,7.25-.17Z"/><path class="g" d="M754.92,238.99c-.44,.04-.79,.06-1.07,.06-.18,1.56-.36,3.12-.54,4.68v.04c.46-.2,.95-.35,1.39-.49l.19-.06c1.81-.59,3.68-1.09,5.54-1.48,4.21-.88,8.03-1.14,11.34-.8,.25,.03,.51,.06,.76,.1v-.03l.55,.07c.28,.06,.56,.11,.81,.13,1.12,.08,2.24,.41,3.32,.73l.12,.03c2.68,.79,5.2,1.98,7.53,3.27-1.48-1.22-3.04-2.38-4.71-3.38l.11-.18-.16,.15-.28-.17c-1.17-.69-2.38-1.4-3.66-1.9-.86-.34-1.8-.65-2.96-.99l-.3-.09c-.4-.04-.81-.05-1.21-.07l-.61-.03c-2.17-.11-4.4-.05-6.29,.03l-.46,.02c-2.07,.09-4.14,.18-6.21,.24-.97,.03-1.94,.06-2.92,.08-.05,0-.16,.01-.29,.02Z"/><path class="g" d="M753.12,245.35c-.18,1.59-.37,3.17-.56,4.76,.21-.09,.42-.16,.58-.22,1.78-.61,3.64-1.11,5.55-1.49,4.18-.83,8.15-1.08,11.81-.76,.4,.04,.82,.09,1.27,.17v-.05l.59,.08c.28,.08,.57,.12,.68,.14,1.21,.19,2.38,.45,3.58,.79,2.59,.74,5.02,1.84,7.4,3.11-1.57-1.25-3.12-2.35-4.79-3.32l.12-.2-.17,.16-.07-.04h0c-2.3-1.3-4.42-2.22-6.67-2.9l-.32-.1c-.11,0-.22-.01-.33-.02-.42-.02-.84-.05-1.27-.12-1.98-.12-3.95-.13-5.62-.13-1.58,0-3.16,.04-4.75,.07-2.17,.05-4.42,.09-6.63,.06-.15,0-.28,0-.41,0Z"/><path class="g" d="M763.68,225.69l-1.03,3.61c2.23-.57,4.36-.95,6.42-1.15l.1-3.48c.06-1.92,.65-3.68,1.71-5.16-.58,.04-1.12,.09-1.66,.15-.18,.02-.37,.04-.56,.07l-.35,.04c-2.85,1.02-4.12,4.14-4.63,5.92Z"/><path class="g" d="M755.17,233.14c-.21,1.65-.41,3.29-.6,4.94,.39-.18,.76-.34,.82-.36,.83-.33,1.67-.6,2.52-.87,1.79-.56,3.7-1.04,5.84-1.45,2.7-.5,5.05-.75,7.18-.75,1.12,0,2.17,.07,3.19,.2,.22,.03,.44,.07,.66,.11l.12,.02c2.87,.37,5.5,1.16,7.79,2.32,1.13,.54,2.28,1.14,3.47,1.82-1.12-.94-2.22-1.81-3.34-2.62-2.39-1.73-5.06-3.02-8.15-3.95-3.81-.33-7.7-.06-11.46,.21-2.63,.18-5.33,.39-8.04,.36Z"/><path class="g" d="M770.16,224.81l-.86,3.32c.08,0,.16-.01,.24-.02,1.63-.14,3.63-.3,5.47-.07,.25-1.2,.51-2.28,.77-3.23,1.08-3.83,3.27-4.38,5.7-4.11-1.18-.5-2.29-.85-3.39-1.06-.71-.13-1.56-.21-2.57-.25-2.67,.61-4.62,2.58-5.36,5.42Z"/><path class="g" d="M752.57,251.72h-.11s-.05,0-.08,0c-.19,1.57-.39,3.15-.6,4.72,1.34-.48,2.84-.89,4.67-1.28,4.1-.88,8.25-1.16,12.34-.84,.82,.06,1.67,.18,2.53,.35h.3c.15,.02,.3,.04,.45,.06l.21,.03c1.27,.23,2.31,.43,3.39,.73,2.61,.67,5.08,1.76,7.47,2.99-1.52-1.17-3.13-2.28-4.85-3.24h0l-.08-.04h0c-2.27-1.25-4.34-2.14-6.52-2.81l-.4-.12v-.06c-1.59-.25-3.3-.29-4.96-.32l-1.09-.02c-1.85-.05-3.7-.05-5.55-.06-1.89,0-3.78-.01-5.67-.06-.48,0-.96-.01-1.45-.03Z"/><path class="g" d="M772.29,328.19c-1.04-1.17-1.67-2.8-1.73-4.45-.06-1.81,.5-3.55,1.56-4.88,.54-.68,1.17-1.23,1.95-1.69-.85,.21-1.52,.61-2.02,1-1.54,1.21-2.53,3.24-2.59,5.3,.15,2.12,.85,3.73,2.15,4.9,.72,.65,1.55,1.09,2.42,1.31-.62-.37-1.23-.85-1.74-1.49Z"/><path class="g" d="M738.11,296.1c1.29,2.53,3.36,4.91,5.98,6.88,.73,.55,1.5,1.07,2.32,1.57-4.68-4.92-6.89-11.85-5.78-18.36l.99,.09c-.04,1.76,.06,3.09,.33,4.31,1.36,6.19,5.6,11.68,11.45,14.9-5.04-5.15-7.57-12.82-6.45-19.72l.99,.09c-.02,1.73,.11,3.14,.4,4.45,.59,2.6,1.83,6.35,4.37,9.42l.18,.22c.92,1.12,1.88,2.27,2.99,3.16,1.25,1,2.43,1.83,3.7,2.62,.17,.1,.33,.2,.51,.3-2.52-2.75-4.47-6.16-5.69-9.94-1.27-3.94-1.65-7.55-1.13-10.73l.99,.11c-.16,2.98,.55,6.27,2.11,9.78,1.65,3.71,4.06,6.87,6.97,9.16,.87,.68,1.77,1.28,2.74,1.81-2.49-2.9-4.36-6.39-5.55-10.4-1.25-4.24-1.56-7.8-.94-10.89l.99,.12c-.1,2.85,.74,5.63,1.47,7.73,1.1,3.13,2.65,6,4.62,8.54,2.05,2.65,4.58,4.71,7.31,5.96,1.07,.49,2.19,.9,3.32,1.21-3.98-2.7-8.17-6.91-9.4-11.76-1-3.94-1.18-8.29-.57-14.11l.05-.5,.5,.05c.9,.09,1.81,.22,2.7,.38l.43,.08-.04,1.04c-.1,2.35-.21,4.77-.12,7.16,.02,.6,.06,1.17,.12,1.71,.02-.56,.06-1.14,.12-1.76,.25-2.39,.69-4.78,1.12-7.1l.14-.76,.52,.13c2.54,.64,5.02,1.55,7.43,2.55-1.04-.69-2.1-1.35-3.18-1.97-3.04-1.72-5.99-2.97-9-3.81l-.5-.12c-3.12-.53-6.43-.96-10.44-1.36-1.06-.1-2.12-.19-3.18-.27-1.57-.12-3.19-.25-4.78-.45-.21,1.5-.35,2.68-.45,3.79h-1c-.12-1.26-.19-2.42-.19-3.54-.06-8.14,1.03-16.39,2.09-24.38l.17-1.3c.93-7.06,2.15-15.22,4.85-22.83l1.33-3.73c.14-1.29,.48-2.53,1-3.66-.99,.27-1.91,.54-2.81,.82-1.87,1.27-2.99,3.73-3.6,5.58l-.61,1.84,.07,.02-.07,.39c-.16,.81-.31,1.63-.47,2.44-1.11,6.05-1.88,12.24-2.63,18.24-.3,2.41-.6,4.82-.93,7.23-.59,4.43-1.28,8.88-1.94,13.02l-.27,1.67c-.46,2.88-.94,5.86-1.21,8.8h-1c-.12-1.2-.18-2.21-.19-3.17,0-.07,0-.15,0-.22-1.58,.28-3.13,.57-4.65,.94-1.41,.34-2.78,.77-4.37,1.3-.31,3.69-.51,7.96,.23,11.99,.42,2.17,1.12,3.98,2.06,5.38,.57,.86,1.1,1.56,1.85,2.42,.78,.86,1.46,1.54,2.14,2.13,.53,.47,1.09,.92,1.68,1.35-1.8-1.97-3.22-4.18-4.18-6.5-1.46-3.54-1.81-7.4-1.03-11.47l.99,.11c-.13,3.66,.53,6.87,2.03,9.81Z"/><path class="g" d="M790.71,247.04c-.34,2.83-.68,5.65-1.03,8.42l-.18,1.49c-.24,1.94-.47,3.87-.71,5.81-.71,5.93-1.45,12.03-2.33,18.06,.65-3.28,1.23-6.8,1.76-10.7,1.21-8.82,2-16.24,2.48-23.1Z"/><path class="g" d="M744.85,241.26c-2.72,1.16-5.14,2.27-7.37,3.36-.11,.53-.22,1.07-.32,1.61,2.18-.23,4.42-.4,6.82-.53,.27-1.56,.56-3.02,.88-4.44Z"/><path class="g" d="M759.29,329.55c-.21,3.72-.34,7.74-.38,12.19-.06,6.06-.09,12.12-.11,18.19-.01,2.92-.02,5.85-.04,8.77-.04,7.82,0,16.16,.15,26.21,.21,.02,.42,.03,.63,.05l-.08-14.86c-.08-16.08-.17-33.2-.17-50.55Z"/><path class="g" d="M740.9,234.57c2.07-.3,4.27-.58,6.84-.89,.43-1.29,.9-2.53,1.38-3.71l.32,.1,.2-1.88c.15-1.47,.48-2.86,.95-4.09-.46,.18-.9,.37-1.34,.56l-.24,.11c-2.33,1.69-3.54,4.57-4.04,6.14l-.97-.21c.12-1.06,.34-2.1,.64-3.09-.94,1.07-1.81,2.43-2.56,4.03-.42,.89-.81,1.86-1.19,2.93Z"/><path class="g" d="M740.71,276.83c0-1.57,.05-3.18,.14-4.79-1.38,.3-2.59,.58-3.79,.9-1.62,.44-3.25,1.02-4.71,1.55-.08,.59-.16,1.19-.23,1.78,.36,0,.7,0,1.02,0,1,0,1.86,.02,2.68,.07,1.7,.12,3.39,.31,4.89,.5Z"/><path class="g" d="M745.26,239.46c.4-1.65,.84-3.25,1.31-4.76-2.92,1.37-5.39,2.57-7.68,3.76-.15,.57-.29,1.14-.43,1.71,2.13-.27,4.36-.5,6.8-.71Z"/><path class="g" d="M741.99,259.85c-2.8,.87-5.35,1.78-7.77,2.76l-.29,1.68c1.13-.04,2.26-.07,3.42-.07,1.34,0,2.71,.03,4.12,.09,.16-1.49,.33-2.98,.51-4.46Z"/><path class="g" d="M795.53,261.93c-.12,.96-.24,1.91-.35,2.86l.3,.18c.22-1.95,.42-3.91,.61-5.89l-.17-.23c-.13,1.03-.26,2.06-.38,3.08Z"/><path class="g" d="M750.91,264.45s-.19-.01-.39-.04c-.24,1.61-.49,3.21-.75,4.82h.03c.08-.03,.15-.04,.19-.05l.11-.04c.76-.23,1.54-.47,2.34-.62,1.93-.42,3.7-.7,5.38-.85,3.59-.32,7.07-.23,10.34,.27,.5,.08,.99,.17,1.48,.27h.06c.1,0,.19,0,.25,0,1.07,.12,2.17,.33,3.38,.63,2.81,.67,5.49,1.75,8.01,2.94-1.6-1.15-3.29-2.24-5.08-3.17h0c-2.36-1.22-4.47-2.09-6.64-2.74l-.43-.13v-.04c-1.48-.24-3.02-.35-4.51-.46l-.99-.08c-2.77-.22-5.6-.36-8.33-.49l-2.35-.12c-.71-.04-1.42-.07-2.12-.13Z"/><path class="g" d="M796.52,253.81c-.18,1.56-.37,3.11-.56,4.65l.17,.11c.14-1.58,.28-3.16,.39-4.75Z"/><path class="g" d="M793.87,278.02l-.25-.33c-.26,2.06-.52,4.13-.81,6.19l.18,.09c.34-1.98,.62-3.97,.88-5.95Z"/><path class="g" d="M794.22,275.22l.2-1.6c.08-.61,.16-1.22,.23-1.84l-.28-.37c-.24,2.02-.49,4.07-.74,6.12l.27,.15c.11-.82,.21-1.64,.31-2.46Z"/><path class="g" d="M792.27,287.7c.26-1.19,.49-2.38,.7-3.58l-.16-.2c-.17,1.27-.35,2.53-.54,3.79Z"/><path class="d" d="M779.17,224.86c.25-.32,.53-.6,.87-.83-.34,.21-.63,.5-.87,.83Z"/><path class="g" d="M762.72,315.93c.3,2.74,.61,5.56,1.07,8.36,.23,1.39,.54,2.67,.95,3.88-.2-1.19-.28-2.39-.35-3.6-.07-2.85,.06-5.73,.19-8.51l.04-.48c.09-1.88,.19-3.67,.26-4.89h-12.88l-.17,3.69c-.21,2.87-.4,5.45-.49,8.08-.04,1.14-.07,2.42,.03,3.68,.08-1.05,.24-2.15,.47-3.28,.53-2.59,1.12-5.16,1.59-7.1l.09-.39,9.17,.12,.05,.44Z"/><path class="g" d="M795.42,265.49l-.28-.37c-.19,1.55-.37,3.1-.56,4.65-.06,.46-.11,.93-.17,1.4l.31,.18c.24-1.92,.48-3.88,.7-5.85Z"/><path class="g" d="M750.34,270.82c-.05,0-.43-.05-.79-.1l-.2,1.24c-.2,1.24-.4,2.47-.58,3.71,3.76-1.17,7.55-1.59,11.02-1.59,3.26,0,6.23,.36,8.65,.81l.57,.06c1.04,.09,2.18,.3,3.5,.64,2.82,.72,5.51,1.75,8.08,2.88-1.67-1.16-3.4-2.25-5.21-3.15h0c-2.47-1.24-4.65-2.11-6.86-2.74l-.43-.12c-3.05-.51-6.19-.76-9.24-1l-.68-.05c-1.25-.1-2.5-.19-3.75-.28l-2.37-.17c-.57-.04-1.13-.08-1.7-.12Z"/><path d="M767.74,364.72l.36-.21c4.32-2.52,8.73-5.09,11.3-8.8,3.61-5.21,.85-10.63-1.37-14.98-1.18-2.31-2.4-4.7-2.71-6.92l-.03-.23,.16-.17c.35-.38,.68-.81,.99-1.26l.12-.18,.21-.03c1.68-.27,3.19-1.12,4.38-2.48,1.42-1.62,2.19-3.76,2.18-6.03,0-2.04-.67-4.02-1.88-5.58l-.15-.19,.06-.23c.5-2.04,.95-3.87,1.2-4.93l.07-.31,.31-.06c.75-.16,1.5-.33,2.24-.52,1.95-.54,3.86-1.14,5.65-2.41,.21-.15,.42-.32,.62-.52l.54-.56c.11-.11,.22-.25,.33-.4l.17-.22c.11-.13,.19-.25,.27-.38,.06-.08,.11-.17,.18-.25,.5-.74,.96-1.57,1.44-2.58,.72-1.54,1.34-3.24,1.95-5.33,.23-.81,.45-1.61,.65-2.41l-4.45-5.7c-.58,2.17-1.3,4.29-2.19,6.35l-.94-.34c.91-3.1,1.43-6.32,1.84-9.09,.89-6.01,1.63-12.16,2.33-18.11,.31-2.62,.62-5.23,.95-7.84,.93-7.44,1.89-15.14,2.43-22.86l1,.02c.05,2.29,.04,4.66-.03,7.07l5.37,3.66c.14-3.25,.05-5.44-.05-6.74-.03-.45-.08-.85-.12-1.2l-.02-.19c-.04-.39-.1-.72-.15-.99l-.17-.87-.21-.77c-.16-.5-.43-1.31-.9-2.29-.62-1.32-2.1-4.05-5.12-7.47-3.23-3.65-6.71-6.62-10.62-9.09-1.27-.79-2.48-1.44-3.72-2-1.5-.68-2.94-1.15-4.28-1.4-1.69-.31-3.28-.35-4.75-.34-1.5,.01-3.09,.11-4.88,.29-3.23,.34-6.66,.93-10.18,1.76-2.89,.7-6.71,1.72-10.56,3.39-.85,.36-1.7,.79-2.62,1.31-.76,.44-1.65,1-2.48,1.84-1.28,1.33-2.38,2.99-3.37,5.06-1.78,3.79-2.79,7.85-3.67,11.68-.9,4.03-1.64,8.12-2.39,12.3l-.02,.13c-.73,4.12-1.47,8.28-2.18,12.49-.64,3.86-1.36,8.36-1.8,12.94-.39,4.24-.63,8.8,.18,13.32,.5,2.57,1.31,4.67,2.47,6.41,.57,.87,1.33,1.87,2.05,2.69,.86,.97,1.62,1.73,2.39,2.39,3.1,2.71,7.01,4.87,11.62,6.42,.33,.11,.66,.21,.99,.31l.37,.11,.06,.41c-.07,1.51-.16,3.47-.25,5.51-.29,4.02-.3,7.44-.3,9.49,0,5.46,2.23,9.04,5.83,9.41l.45,.05v33.15l-.17,.15c-3.18,2.82-5.74,5.66-8.03,8.92-2.89,4.11-4.27,8.38-4.21,13.13l.37-2.68c.45-3.22,1.47-6.12,3.03-8.62,1.48-2.36,3.37-4.52,5.03-6.42l3.05-3.49-2.24,4.06c-.7,1.28-1.55,2.48-2.36,3.64-.73,1.05-1.49,2.13-2.13,3.24-.72,1.25-1.55,2.75-2.2,4.37-.26,.66-.49,1.33-.71,2-.16,.48-.32,.97-.5,1.45l-1.3,3.54c.09,1.52,.32,3.1,.69,4.73l.12,.54-.54,.07c-19.6,2.59-32.77,9.06-32.77,16.1v6.26c0,9.53,23.01,17.28,51.29,17.28s51.29-7.75,51.29-17.28v-6.26c0-8.23-17.34-15.33-41.29-16.94l-3.58,14.94v-47.2Zm-7.1,47.65c0,.66-.5,1.17-1.18,1.18h-.02c-.66,0-1.17-.49-1.19-1.14-.02-.11-.02-.3-.02-.48v-.2l-.02-.79c-.04-1.32-.07-2.65-.09-3.97l-.08-4.08c-.05-2.54-.1-5.08-.13-7.61-.15-10.22-.2-18.66-.16-26.58,.02-2.92,.03-5.85,.04-8.77,.02-6.06,.05-12.13,.11-18.19,.1-9.28,.54-16.71,1.39-23.38l1,.06v9.12c0,18.03,.09,35.85,.17,52.55l.17,32.28Zm15.68-69.68c1.79,2.57,4.38,7.51,1.62,11.77-2.18,3.36-5.62,5.33-8.13,6.39l-.47-.88c2.66-1.72,5.97-3.86,7.49-7.03,1.61-2.99,.13-6.6-1.38-9.75l.86-.5Zm-.1,10.83c-1.71,2.47-4.73,4.48-7.73,6.29l-.76,.46v-23.69l.46-.04,.19,.49-.04-.5c.4-.03,.78-.08,1.14-.13l.25-.05c.29-.05,.56-.1,.82-.16l.32-.08c.14-.04,.28-.07,.42-.11l.49-.15,.14,.49c.63,2.17,1.71,4.29,2.66,6.16,2.45,4.8,3.78,7.95,1.64,11.04Zm.4-22.82c-.44,.1-.89,.15-1.33,.15-1.56,0-3.1-.6-4.35-1.72h0c-1.48-1.33-2.31-3.22-2.48-5.62,.07-2.4,1.2-4.72,2.97-6.11,1.48-1.17,3.31-1.6,5.14-1.21l1.83,.39-1.78,.58c-1.74,.56-2.85,1.27-3.72,2.35-.92,1.15-1.4,2.65-1.35,4.22,.05,1.42,.6,2.82,1.5,3.84,1.01,1.24,2.39,1.8,3.61,2.18l1.79,.56-1.83,.4Zm-27.77-23.9c-2.39-1.13-4.31-2.26-6.03-3.56-2.74-2.06-4.91-4.56-6.27-7.22-.53-1.03-.95-2.09-1.29-3.19,.22,1.34,.59,2.64,1.11,3.9,1.23,2.99,3.28,5.79,5.92,8.09,.57,.5,1.19,1,1.91,1.55l-.52,.85c-2.43-1.19-4.58-2.6-6.39-4.2-.71-.61-1.42-1.32-2.23-2.22-.78-.9-1.34-1.63-1.93-2.53-1.02-1.51-1.76-3.44-2.21-5.74-.79-4.26-.55-8.76-.21-12.59l.03-.33,.31-.1c1.75-.59,3.23-1.06,4.77-1.43,.8-.19,1.61-.36,2.42-.52-.81-.09-1.65-.16-2.49-.22-1.2-.07-2.5-.09-4.2-.05h-.57l.07-.56c.11-.89,.22-1.78,.34-2.67l.04-.3,.29-.1c1.55-.56,3.31-1.2,5.08-1.68,.78-.21,1.55-.4,2.37-.58-.8-.06-1.63-.11-2.46-.15-1.5-.06-3.03-.01-4.32,.04l-.61,.02,.09-.6c.13-.86,.27-1.72,.41-2.58l.05-.28,.27-.1c2.35-.9,4.82-1.72,7.52-2.48-2.33-.07-4.56-.05-6.75,.05l-.62,.03,.58-3.45,.26-.11c2.34-.96,4.79-1.84,7.46-2.69h-.02c-2.3,0-4.48,.07-6.63,.22l-.64,.04,.93-5.32,.46,1.55c2.14-.92,4.39-1.8,6.84-2.66-2.26,.07-4.41,.19-6.53,.38l-.65,.06,.12-.64c.16-.88,.32-1.76,.48-2.63l.36-1.99,.47,1.49c2.07-.95,4.27-1.88,6.69-2.83-2.21,.14-4.3,.31-6.34,.54l-.67,.07,.13-.67c.17-.84,.33-1.69,.51-2.52l.05-.24,.22-.11c2.15-1.06,4.47-2.12,7.06-3.24-2.13,.2-4.11,.42-6,.66l-.72,.09,.16-.7c.21-.89,.43-1.78,.66-2.65l.06-.21,.2-.1c2.01-1.04,4.14-2.1,6.59-3.26-1.9,.24-3.61,.47-5.25,.71l-.81,.12,.26-.77c.48-1.42,.97-2.67,1.5-3.81,.89-1.89,1.92-3.46,3.08-4.66,.34-.35,.78-.7,1.31-1.06l1.52-1.03-.77,1.62c.6-.79,1.33-1.55,2.2-2.17l.34-.17c.81-.35,1.65-.69,2.51-1.01l1.2-.45-.58,1.14c-.06,.11-.11,.23-.17,.34,.54-.71,1.16-1.34,1.9-1.83l.12-.06c1.27-.4,2.59-.78,4.04-1.15l1.2-.31-.65,1.05c-.14,.23-.27,.47-.4,.72,.73-.89,1.6-1.6,2.55-2.08l.12-.04c1.46-.32,2.91-.6,4.31-.83l1.19-.2-.85,1.19c-.19,.29-.36,.59-.52,.91,.9-1.1,1.97-1.89,3.19-2.32l.1-.02,.4-.05c.2-.03,.39-.05,.59-.07,.9-.09,1.84-.17,2.86-.22l1.25-.07-.86,.91c-.39,.41-.72,.85-1.01,1.32,1.07-1.09,2.43-1.85,4.01-2.2h.13c1.08,.03,1.99,.12,2.78,.26,2.8,.54,5.23,1.83,6.81,2.75l2.62,1.52-2.97-.6c-.33-.07-.65-.14-.97-.21-3.38-.73-5.83-1.26-7.02,2.95-.29,1.04-.58,2.26-.85,3.62l-.09,.48-.48-.08c-1.83-.32-3.98-.14-5.7,0-3.68,.31-7.55,1.21-11.85,2.75-.24,.08-.48,.17-.72,.27,2.04-.05,4.09-.2,6.09-.34,3.83-.27,7.78-.55,11.7-.2l.46,.04v.09c3.06,.95,5.72,2.25,8.12,3.99,2.47,1.79,4.85,3.82,7.49,6.41l-.63,.77c-2.97-2-5.52-3.49-8.02-4.68-2.2-1.12-4.72-1.87-7.5-2.23l-.15-.03c-.2-.04-.4-.08-.61-.1-2.86-.38-6.05-.21-10.06,.54-2.11,.4-3.98,.87-5.73,1.42-.7,.22-1.38,.44-2.05,.69,.83-.02,1.65-.04,2.48-.07,2.06-.07,4.14-.15,6.2-.24l.46-.02c1.92-.08,4.18-.14,6.39-.03l.6,.03c.55,.02,1.11,.05,1.67,.12l.48,.06v.13c1,.3,1.85,.59,2.63,.9,1.34,.53,2.59,1.26,3.79,1.97l.29,.17s.04,.02,.06,.04c3.34,2.02,6.25,4.6,8.89,7.09l-.61,.79c-3.43-2.19-7.47-4.64-11.9-5.95l-.12-.03c-1.03-.3-2.1-.62-3.13-.69-.16-.02-.32-.04-.48-.06l-.45-.04c-.4-.07-.8-.13-1.21-.17-3.21-.33-6.92-.07-11.03,.78-1.82,.38-3.65,.87-5.43,1.45l-.2,.06c-.14,.04-.27,.09-.41,.13,1.85,.01,3.72-.03,5.54-.07,1.59-.03,3.18-.07,4.76-.07,1.68,0,3.68,0,5.74,.14,.42,.07,.8,.09,1.2,.12,.27,.01,.53,.03,.8,.06l.5,.05-.02,.17c2,.63,3.92,1.46,5.96,2.58h0l.59,.33s.07,.04,.11,.06c3.12,1.82,5.84,4.08,8.97,6.91l-.59,.8c-3.84-2.32-7.64-4.51-11.81-5.69-1.16-.33-2.29-.58-3.46-.76-.07-.01-.19-.03-.33-.06l-.42-.02c-.65-.12-1.2-.2-1.72-.25-3.56-.32-7.44-.07-11.53,.74-1.77,.35-3.51,.81-5.16,1.36,.1,0,.2,0,.3,0,1.89,.05,3.77,.06,5.65,.06,1.86,0,3.71,.01,5.57,.06l1.09,.02c1.86,.04,3.79,.07,5.6,.41l.45,.08-.02,.17c2.07,.66,4.06,1.53,6.21,2.7h0s.07,.04,.1,.05c.02,0,.04,.02,.05,.03,.03,.02,.06,.04,.09,.05,3.42,1.92,6.38,4.39,9.11,6.75l-.58,.81c-3.83-2.19-7.74-4.43-11.96-5.51-1.05-.29-2.07-.48-3.29-.71l-.2-.03h-.03v.04l-.55-.06c-.89-.19-1.78-.31-2.63-.38-4-.31-8.05-.04-12.06,.82-1.46,.31-2.71,.64-3.83,1,.43,.02,.85,.03,1.28,.04l2.52,.07c2.77,.08,5.63,.16,8.45,.3l.55,.03c1.8,.09,3.66,.18,5.47,.51l.47,.09-.02,.16c2.01,.64,4.02,1.5,6.12,2.62h0l.09,.05s.04,.02,.06,.03l.05,.03h0c3.38,1.82,6.32,4.17,9.28,6.62l-.56,.82c-3.66-2-7.81-4.27-12.25-5.37-1.17-.31-2.28-.53-3.4-.67v.03l-.55-.06c-.92-.19-1.81-.33-2.71-.42-4-.41-8.25-.18-12.29,.65-1.27,.26-2.37,.53-3.36,.83,.4,.02,.8,.04,1.2,.06l2.35,.12c2.74,.13,5.58,.27,8.36,.49l.99,.07c1.68,.13,3.42,.26,5.11,.56l.48,.09-.02,.15c2.04,.64,4.04,1.47,6.25,2.6l.3,.16c3.48,1.82,6.58,4.26,9.32,6.42l-.54,.84c-3.75-1.94-8.01-4.15-12.55-5.24-1.17-.3-2.24-.5-3.25-.61-.03,0-.09,0-.16,0h-.16c-.56-.11-1.03-.21-1.51-.28-3.19-.49-6.59-.58-10.1-.26-1.64,.15-3.36,.42-5.27,.83-.51,.1-1.02,.23-1.52,.38,.32,.02,.65,.05,.97,.07l2.37,.17c1.25,.09,2.51,.18,3.76,.28l.68,.05c3.23,.26,6.58,.53,9.82,1.1l.49,.09-.02,.1c2.08,.63,4.15,1.46,6.46,2.61h0l.09,.05,.05,.02s.04,.02,.07,.03l.08,.04c3.3,1.66,6.28,3.9,9.17,6.06l.27,.2-.52,.85c-3.92-1.92-8.11-3.9-12.62-5.04-1.27-.32-2.36-.52-3.35-.61l-.63-.07c-4.62-.85-11.29-1.41-17.99,.39,1.05,.1,2.1,.19,3.13,.27,1.07,.08,2.14,.17,3.21,.28,4.03,.4,7.37,.84,10.51,1.37l1.01,.19v.08c2.95,.86,5.84,2.1,8.82,3.79,2.43,1.38,4.73,3,6.96,4.58l.54,.38c.25-1.39,.47-2.79,.68-4.21,1.03-6.76,1.86-13.66,2.66-20.34,.23-1.94,.47-3.88,.71-5.81l.18-1.49c.83-6.75,1.69-13.73,2.37-20.62l1,.03c.09,2.8,.04,5.81-.17,9.46-.44,7.68-1.29,15.96-2.67,26.05-.65,4.73-1.36,8.9-2.19,12.77-.82,3.82-1.62,7-2.87,10.07l-.94-.32c.46-1.68,.83-3.39,1.15-5.13l-.29,.49c-3.66-1.7-7.57-3.44-11.6-4.52-.41,2.2-.82,4.48-1.05,6.73-.2,1.93-.17,3.54,.11,4.92,.27,1.32,.67,2.52,1.01,3.52l-.92,.39c-.7-1.37-1.18-2.46-1.57-3.55-.51-1.45-.8-3.18-.87-5.3-.09-2.42,.02-4.87,.12-7.23v-.17c-.55-.09-1.12-.18-1.68-.24-.53,5.45-.34,9.55,.6,13.26,1.41,5.56,7.01,10.28,11.38,12.63l2.52,1.36-2.83-.42c-.6-.09-1.21-.19-1.81-.32-1.57-.35-3.11-.87-4.57-1.54-2.88-1.32-5.53-3.48-7.68-6.26-2.04-2.62-3.64-5.59-4.78-8.82-.19-.55-.4-1.15-.58-1.79,.2,1.32,.52,2.72,.96,4.22,1.24,4.18,3.24,7.78,5.94,10.7,.37,.4,.78,.8,1.25,1.24l2.02,1.85-2.54-1.01c-2.02-.8-3.8-1.82-5.44-3.11-3.04-2.38-5.55-5.68-7.27-9.54-.18-.41-.35-.81-.51-1.21,.12,.44,.26,.89,.4,1.34,1.31,4.06,3.5,7.68,6.33,10.46,.39,.38,.82,.77,1.36,1.23l2.38,2.03-2.9-1.18c-1.33-.54-2.46-1.11-3.47-1.74-1.3-.81-2.51-1.67-3.79-2.69-1.2-.95-2.19-2.15-3.14-3.31l-.18-.22c-1.93-2.33-3.14-5.01-3.89-7.35,.85,4.57,3.13,8.97,6.5,12.22,.65,.62,1.32,1.22,2,1.77l2.72,2.21-3.23-1.37c-.66-.28-1.32-.57-1.97-.89-5.83-2.83-10.3-7.77-12.35-13.54,.82,4.17,2.95,8.14,6.14,11.16,.69,.65,1.42,1.29,2.17,1.9l3.27,2.64-3.8-1.8Zm37.44-82.15v.58l-.57-.08c-.54-.08-1.09-.18-1.63-.28l-.76-.14c-.85-.15-1.84-.33-2.51,.01-.78,.39-1.25,1.29-1.75,2.24-.33,.63-.67,1.27-1.11,1.78l-.94,1.07,.06-1.42c.09-2.15,.99-4.9,3.21-5.57,1.27-.38,2.56,.02,3.67,.43,2.13,.77,2.32,.99,2.32,1.39Zm-32,91.73c-.45,1.89-1,4.28-1.49,6.68-.36,1.77-.53,3.44-.51,4.95,.08,1.34,.3,2.61,.7,3.97l-.93,.36c-.73-1.52-1.2-2.94-1.48-4.46-.35-1.84-.31-3.78-.25-5.45,.1-2.65,.28-5.24,.5-8.11l.22-4.63h14.89l-.03,.53c-.07,1.26-.2,3.5-.31,5.82l-.04,.48c-.12,2.68-.23,5.37-.17,8.01,.11,1.91,.26,3.79,.85,5.64,.39,1.21,1.03,2.36,1.64,3.48l.14,.25-.83,.55-.35-.45c-.89-1.14-1.81-2.33-2.35-3.71-.78-1.76-1.33-3.67-1.69-5.83-.44-2.67-.74-5.36-1.03-7.97l-7.49-.1Zm-4.44,64.1c1.3-1.85,2.67-3.53,4.19-5.13l.86-.91v22.34l-.48,.02c-2.28,.1-4.57,.26-6.81,.47l-.43,.04-.1-.42c-1.55-6.31-.67-11.53,2.77-16.42Zm45.18,45.23l.26,.96c-4.76,1.6-9.47,2.81-14.4,3.69-5.57,1-11.76,1.54-18.91,1.67-.78,.01-1.55,.02-2.33,.02-8.33,0-16.42-.82-24.06-2.45-6-1.28-14.79-3.61-21.79-9.03l.56-.82c5.08,3.04,10.63,4.67,14.89,5.75,5.26,1.34,11.19,2.29,17.63,2.83,16.95,1.42,33.15,.54,48.14-2.63Z"/><path d="M797.08,259.16l5.11,3.22c.08-.72,.16-1.42,.24-2.11l-4.89-6.55c-.13,1.82-.28,3.63-.45,5.43Z"/><path d="M797.88,247.37c-.07,1.77-.17,3.54-.28,5.3l5.24,3.45c.07-.79,.14-1.55,.19-2.28l-5.14-6.91c0,.15-.01,.29-.02,.44Z"/><path d="M795.42,273.75l-.2,1.6c-.12,.94-.24,1.89-.36,2.84l4.97,2.69c.09-.66,.19-1.32,.27-1.96l-4.57-6c-.04,.28-.07,.56-.11,.83Z"/><path d="M796.42,265.55l5.02,3.03,.25-2.03-4.71-6.27c-.17,1.77-.36,3.53-.56,5.28Z"/><path d="M795.66,271.88l5,2.86c.09-.67,.17-1.33,.26-1.99l-4.62-6.1c-.2,1.76-.42,3.51-.63,5.23Z"/><path d="M793.92,284.45l4.98,2.52c.11-.66,.21-1.32,.32-1.97l-4.49-5.85c-.24,1.77-.5,3.54-.8,5.3Z"/><path d="M793.79,285.19c-.33,1.8-.71,3.59-1.18,5.36l5.19,2.43c.14-.7,.28-1.39,.41-2.07l-4.42-5.71Z"/><path d="M752.81,238.34l.04-.37,.03-.28c.11-.92,.22-1.84,.33-2.76-1.5,5.76-2.35,11.62-3.04,16.86l-.17,1.3c-.92,6.98-1.87,14.17-2.05,21.28,.13-.86,.27-1.72,.41-2.58l.31-1.96c.32-2.03,.64-4.07,.95-6.11l.03-.24c.3-2.03,.6-4.07,.87-6.11l.03-.23c.25-1.87,.49-3.75,.72-5.62l.08-.62c.25-2.07,.49-4.14,.73-6.21l.16-1.4c.15-1.31,.3-2.63,.46-3.95h0l.12-1.02Z"/><path d="M742.39,270.87c.66-4.14,1.34-8.58,1.94-13,.32-2.41,.62-4.82,.93-7.22,.62-4.91,1.25-9.96,2.07-14.95-.42,1.39-.81,2.85-1.16,4.35l-.11,.49c-.42,1.81-.8,3.69-1.15,5.73l-.1,.59c-.29,1.72-.56,3.55-.83,5.61l-.26,1.98c-.18,1.41-.37,2.82-.54,4.23l-.07,.54c-.24,1.89-.46,3.78-.65,5.68l-.05,.47c-.2,1.91-.35,3.85-.47,5.75l-.03,.51c-.06,1.11-.11,2.21-.13,3.3,.12-.8,.25-1.6,.38-2.39l.27-1.66Z"/><path class="c" d="M768.74,365.29c4.34-2.53,8.81-5.15,11.48-9.02,3.95-5.7,1.04-11.42-1.3-16.01-1.1-2.15-2.23-4.38-2.58-6.38,.28-.32,.55-.66,.8-1.02,1.83-.34,3.47-1.29,4.76-2.77,1.57-1.8,2.44-4.18,2.43-6.69,0-2.17-.69-4.29-1.94-5.99,.44-1.77,.82-3.36,1.07-4.39,.66-.14,1.32-.29,1.99-.47,2.05-.57,4.05-1.19,5.97-2.56,.25-.18,.49-.38,.73-.6l.57-.6c.12-.12,.25-.29,.39-.46l.16-.2c.13-.16,.23-.3,.33-.45l.17-.24c.54-.8,1.03-1.67,1.53-2.73,.74-1.59,1.38-3.34,2-5.48,.26-.9,.5-1.79,.72-2.68l.06-.24-2.59-3.31,3.03,1.42,.13-.62c.21-.99,.4-1.96,.58-2.93l.04-.22-3.01-3.89,3.4,1.72,.11-.67c.16-.97,.32-1.92,.46-2.87l.03-.21-3.23-4.21,3.58,1.93,.1-.71c.14-.97,.27-1.94,.4-2.89l.03-.21-3.33-4.37,3.64,2.08,.1-.74c.13-1,.26-1.98,.38-2.94l.03-.2-3.37-4.45,3.65,2.2,.5-3.96-3.38-4.49,3.64,2.3,.09-.79c.12-1.06,.24-2.1,.35-3.1l.02-.2-3.33-4.46,3.55,2.33,.08-.83c.11-1.15,.21-2.26,.29-3.31v-.19l-3.15-4.25,3.3,2.25,.05-.89c.16-3.01,.16-5.7,0-7.75-.03-.46-.08-.88-.13-1.26l-.02-.18c-.05-.43-.1-.79-.17-1.07l-.18-.92-.22-.8c-.17-.55-.46-1.4-.95-2.44-1.1-2.36-2.98-5.1-5.28-7.71-3.3-3.72-6.84-6.75-10.84-9.27-1.31-.81-2.56-1.49-3.83-2.06-1.58-.71-3.09-1.2-4.51-1.47-1.77-.32-3.43-.36-4.94-.36-1.53,.01-3.16,.11-4.98,.29-3.28,.34-6.74,.94-10.31,1.78-2.93,.71-6.8,1.74-10.72,3.45-.88,.38-1.76,.82-2.72,1.36-.82,.47-1.78,1.08-2.7,2.01-1.36,1.42-2.52,3.16-3.55,5.33-1.83,3.88-2.85,8-3.74,11.89-.9,4.05-1.65,8.15-2.4,12.34l-.02,.13c-.73,4.12-1.47,8.28-2.18,12.5-.64,3.88-1.37,8.4-1.81,13.01-.39,4.32-.64,8.95,.2,13.6,.53,2.71,1.38,4.93,2.62,6.78,.59,.9,1.38,1.94,2.13,2.8,.9,1.01,1.69,1.79,2.49,2.48,3.2,2.8,7.22,5.02,11.96,6.61,.23,.08,.46,.15,.72,.23-.07,1.45-.15,3.26-.23,5.13-.29,4.02-.3,7.46-.3,9.59,0,5.64,2.45,9.61,6.28,10.27v31.81c-3.17,2.82-5.72,5.67-8.02,8.94-3.12,4.44-4.56,9.06-4.38,14.22,.05,1.61,.26,3.27,.62,4.99-20.12,2.75-33.1,9.4-33.1,17.02v6.26c0,10.25,22.97,18.28,52.29,18.28s52.29-8.03,52.29-18.28v-6.26c0-8.82-17.93-16.37-42.64-17.97l-.42-.03-1.81,7.54v-38.17Zm43.87,48.63v6.26c0,9.53-23.01,17.28-51.29,17.28s-51.29-7.75-51.29-17.28v-6.26c0-7.04,13.17-13.51,32.77-16.1l.54-.07-.12-.54c-.37-1.63-.6-3.21-.69-4.73l1.3-3.54c.18-.48,.34-.96,.5-1.45,.22-.67,.45-1.34,.71-2,.65-1.62,1.48-3.12,2.2-4.37,.64-1.11,1.4-2.2,2.13-3.24,.82-1.16,1.66-2.37,2.36-3.64l2.24-4.06-3.05,3.49c-1.66,1.9-3.55,4.06-5.03,6.42-1.56,2.49-2.58,5.39-3.03,8.62l-.37,2.68c-.06-4.75,1.33-9.02,4.21-13.13,2.3-3.26,4.85-6.1,8.03-8.92l.17-.15v-33.15l-.45-.05c-3.6-.37-5.83-3.95-5.83-9.41,0-2.05,.01-5.47,.3-9.49,.09-2.04,.18-4,.25-5.51l-.06-.41-.37-.11c-.33-.1-.66-.2-.99-.31-4.61-1.54-8.51-3.7-11.62-6.42-.77-.66-1.53-1.42-2.39-2.39-.71-.82-1.48-1.82-2.05-2.69-1.16-1.74-1.97-3.84-2.47-6.41-.82-4.52-.57-9.08-.18-13.32,.44-4.58,1.16-9.08,1.8-12.94,.71-4.22,1.45-8.37,2.18-12.49l.02-.13c.75-4.18,1.5-8.27,2.39-12.3,.88-3.83,1.89-7.89,3.67-11.68,.98-2.07,2.09-3.72,3.37-5.06,.83-.84,1.72-1.4,2.48-1.84,.92-.52,1.77-.95,2.62-1.31,3.85-1.67,7.67-2.69,10.56-3.39,3.52-.83,6.94-1.42,10.18-1.76,1.78-.18,3.38-.28,4.88-.29,1.47,0,3.06,.04,4.75,.34,1.34,.25,2.78,.72,4.28,1.4,1.23,.56,2.45,1.21,3.72,2,3.91,2.47,7.39,5.44,10.62,9.09,3.02,3.42,4.5,6.15,5.12,7.47,.47,.99,.74,1.79,.9,2.29l.21,.77,.17,.87c.06,.27,.11,.6,.15,.99l.02,.19c.04,.35,.1,.75,.12,1.2,.1,1.3,.19,3.49,.05,6.74l-5.37-3.66c.07-2.41,.08-4.79,.03-7.07l-1-.02c-.54,7.72-1.5,15.41-2.43,22.86-.33,2.61-.64,5.23-.95,7.84-.71,5.95-1.44,12.1-2.33,18.11-.41,2.77-.93,5.99-1.84,9.09l.94,.34c.89-2.06,1.61-4.18,2.19-6.35l4.45,5.7c-.2,.8-.42,1.6-.65,2.41-.61,2.09-1.23,3.79-1.95,5.33-.48,1.01-.94,1.83-1.44,2.58-.06,.08-.12,.17-.18,.25-.08,.12-.17,.25-.27,.38l-.17,.22c-.11,.14-.23,.29-.33,.4l-.54,.56c-.21,.19-.42,.36-.62,.52-1.79,1.27-3.69,1.86-5.65,2.41-.74,.19-1.49,.36-2.24,.52l-.31,.06-.07,.31c-.25,1.05-.7,2.89-1.2,4.93l-.06,.23,.15,.19c1.2,1.56,1.87,3.54,1.88,5.58,0,2.27-.76,4.41-2.18,6.03-1.18,1.36-2.7,2.21-4.38,2.48l-.21,.03-.12,.18c-.31,.46-.64,.88-.99,1.26l-.16,.17,.03,.23c.32,2.22,1.53,4.61,2.71,6.92,2.22,4.35,4.97,9.77,1.37,14.98-2.56,3.71-6.98,6.28-11.3,8.8l-.36,.21v47.2l3.58-14.94c23.95,1.61,41.29,8.72,41.29,16.94Zm-20-123.37c.46-1.76,.85-3.55,1.18-5.36l4.42,5.71c-.13,.69-.27,1.38-.41,2.07l-5.19-2.43Zm.2-6.66c.28-2.06,.55-4.13,.81-6.19l.25,.33c-.26,1.98-.54,3.97-.88,5.95l-.18-.09Zm.15,.24c-.21,1.2-.44,2.4-.7,3.58,.19-1.26,.37-2.52,.54-3.79l.16,.2Zm.67-6.59c.26-2.05,.5-4.09,.74-6.12l.28,.37c-.08,.62-.16,1.23-.23,1.84l-.2,1.6c-.1,.82-.21,1.64-.31,2.46l-.27-.15Zm.77-6.37c.06-.47,.11-.93,.17-1.4,.18-1.55,.37-3.1,.56-4.65l.28,.37c-.22,1.97-.46,3.92-.7,5.85l-.31-.18Zm1.67-12.08c-.19,1.98-.39,3.95-.61,5.89l-.3-.18c.12-.96,.23-1.91,.35-2.86,.13-1.02,.26-2.05,.38-3.08l.17,.23Zm-.12-.64c.19-1.54,.38-3.09,.56-4.65-.12,1.59-.25,3.18-.39,4.75l-.17-.11Zm2.94,28.51l-4.98-2.52c.31-1.76,.57-3.54,.8-5.3l4.49,5.85c-.1,.65-.21,1.31-.32,1.97Zm.92-6.09l-4.97-2.69c.12-.95,.24-1.9,.36-2.84l.2-1.6c.04-.28,.07-.55,.11-.83l4.57,6c-.09,.65-.18,1.3-.27,1.96Zm.83-6.14l-5-2.86c.22-1.72,.43-3.47,.63-5.23l4.62,6.1c-.08,.65-.17,1.32-.26,1.99Zm.78-6.17l-5.02-3.03c.2-1.74,.38-3.5,.56-5.28l4.71,6.27-.25,2.03Zm.75-6.19l-5.11-3.22c.17-1.8,.32-3.62,.45-5.43l4.89,6.55c-.08,.69-.15,1.39-.24,2.11Zm.66-6.26l-5.24-3.45c.12-1.76,.21-3.54,.28-5.3,0-.15,.01-.29,.02-.44l5.14,6.91c-.06,.74-.12,1.5-.19,2.28Z"/><path class="c" d="M747.19,397.31l.43-.04c2.23-.21,4.52-.37,6.81-.47l.48-.02v-22.34l-.86,.91c-1.52,1.6-2.88,3.28-4.19,5.13-3.44,4.89-4.32,10.11-2.77,16.42l.1,.42Zm3.48-16.26c1.02-1.45,2.09-2.79,3.23-4.08v18.85c-1.99,.1-3.99,.24-5.94,.41-.23-1-.37-1.97-.47-2.92-.47-4.55,.55-8.52,3.18-12.27Z"/><path class="c" d="M746.89,428.33c-6.44-.54-12.37-1.49-17.63-2.83-4.26-1.08-9.81-2.72-14.89-5.75l-.56,.82c7,5.42,15.79,7.75,21.79,9.03,7.64,1.63,15.72,2.45,24.06,2.45,.77,0,1.55,0,2.33-.02,7.15-.13,13.33-.68,18.91-1.67,4.93-.89,9.64-2.09,14.4-3.69l-.26-.96c-14.99,3.17-31.19,4.05-48.14,2.63Zm-11.08,.29c-3.61-.77-8.25-1.93-12.87-3.92,2.17,.73,4.24,1.3,6.07,1.77,5.32,1.35,11.3,2.31,17.79,2.85,13.44,1.13,26.41,.81,38.69-.93-1.58,.36-3.16,.69-4.78,.98-5.52,.99-11.65,1.53-18.75,1.66-9.09,.18-17.88-.64-26.16-2.41Z"/><path class="c" d="M780.3,222.83c-2.22,.68-3.12,3.42-3.21,5.57l-.06,1.42,.94-1.07c.45-.51,.79-1.16,1.11-1.78,.5-.95,.97-1.85,1.75-2.24,.67-.34,1.66-.16,2.51-.01l.76,.14c.54,.1,1.08,.2,1.63,.28l.57,.08v-.58c0-.4-.19-.62-2.32-1.39-1.11-.41-2.4-.81-3.67-.43Zm-1.12,2.03c.24-.33,.53-.62,.87-.83-.34,.23-.62,.51-.87,.83Z"/><path class="c" d="M762.8,324.45c.35,2.16,.91,4.08,1.69,5.83,.54,1.38,1.46,2.57,2.35,3.71l.35,.45,.83-.55-.14-.25c-.62-1.11-1.25-2.26-1.64-3.48-.6-1.85-.74-3.73-.85-5.64-.06-2.64,.05-5.34,.17-8.01l.04-.48c.11-2.31,.23-4.55,.31-5.82l.03-.53h-14.89l-.22,4.63c-.21,2.87-.4,5.46-.5,8.11-.06,1.67-.1,3.61,.25,5.45,.29,1.52,.76,2.93,1.48,4.46l.93-.36c-.4-1.36-.62-2.63-.7-3.97-.02-1.52,.15-3.18,.51-4.95,.49-2.41,1.04-4.8,1.49-6.68l7.49,.1c.28,2.61,.58,5.3,1.03,7.97Zm-9.4-8.69c-.46,1.95-1.06,4.52-1.59,7.1-.23,1.13-.39,2.23-.47,3.28-.1-1.26-.07-2.53-.03-3.68,.1-2.63,.28-5.21,.49-8.08l.17-3.69h12.88c-.07,1.22-.17,3.01-.26,4.89l-.04,.48c-.13,2.78-.26,5.66-.19,8.51,.07,1.21,.15,2.41,.35,3.6-.41-1.21-.72-2.49-.95-3.88-.46-2.8-.77-5.62-1.07-8.36l-.05-.44-9.17-.12-.09,.39Z"/><path class="c" d="M749.38,305.95c-.76-.61-1.49-1.25-2.17-1.9-3.19-3.03-5.32-6.99-6.14-11.16,2.05,5.77,6.52,10.71,12.35,13.54,.65,.32,1.31,.61,1.97,.89l3.23,1.37-2.72-2.21c-.68-.55-1.35-1.15-2-1.77-3.38-3.25-5.66-7.65-6.5-12.22,.75,2.33,1.97,5.02,3.89,7.35l.18,.22c.96,1.16,1.94,2.36,3.14,3.31,1.28,1.02,2.49,1.87,3.79,2.69,1.01,.63,2.15,1.2,3.47,1.74l2.9,1.18-2.38-2.03c-.54-.46-.97-.84-1.36-1.23-2.83-2.78-5.02-6.4-6.33-10.46-.15-.45-.28-.9-.4-1.34,.16,.4,.33,.8,.51,1.21,1.71,3.86,4.23,7.16,7.27,9.54,1.64,1.29,3.42,2.3,5.44,3.11l2.54,1.01-2.02-1.85c-.48-.44-.89-.84-1.25-1.24-2.7-2.92-4.7-6.52-5.94-10.7-.44-1.49-.76-2.89-.96-4.22,.19,.64,.39,1.24,.58,1.79,1.13,3.23,2.74,6.2,4.78,8.82,2.15,2.77,4.81,4.94,7.68,6.26,1.46,.67,3,1.19,4.57,1.54,.6,.13,1.2,.23,1.81,.32l2.83,.42-2.52-1.36c-4.37-2.35-9.96-7.07-11.38-12.63-.94-3.71-1.13-7.82-.6-13.26,.57,.07,1.13,.15,1.69,.24v.17c-.11,2.37-.22,4.81-.13,7.23,.07,2.12,.36,3.86,.87,5.3,.39,1.09,.87,2.19,1.57,3.55l.92-.39c-.35-1-.74-2.2-1.01-3.52-.28-1.38-.32-2.98-.11-4.92,.24-2.25,.65-4.52,1.05-6.73,4.03,1.08,7.94,2.82,11.6,4.52l.29-.49c-.32,1.74-.69,3.45-1.15,5.13l.94,.32c1.25-3.07,2.05-6.25,2.87-10.07,.83-3.86,1.54-8.04,2.19-12.77,1.38-10.09,2.23-18.37,2.67-26.05,.21-3.65,.26-6.66,.17-9.46l-1-.03c-.68,6.88-1.54,13.87-2.37,20.62l-.18,1.49c-.24,1.94-.47,3.88-.71,5.81-.8,6.68-1.64,13.58-2.66,20.34-.21,1.42-.43,2.82-.68,4.21l-.54-.38c-2.22-1.57-4.52-3.2-6.96-4.58-2.98-1.69-5.87-2.93-8.83-3.79v-.08l-1.01-.19c-3.14-.53-6.48-.96-10.51-1.37-1.07-.11-2.13-.19-3.21-.28-1.03-.08-2.08-.16-3.13-.27,6.7-1.79,13.37-1.24,17.99-.39l.63,.07c.99,.09,2.08,.29,3.35,.61,4.51,1.15,8.71,3.12,12.62,5.04l.52-.85-.27-.2c-2.89-2.16-5.88-4.39-9.17-6.06l-.08-.04s-.05-.02-.07-.03l-.05-.02-.09-.05h0c-2.31-1.15-4.37-1.98-6.46-2.61l.02-.1-.49-.09c-3.25-.57-6.59-.84-9.82-1.1l-.68-.05c-1.25-.1-2.51-.19-3.76-.28l-2.37-.17c-.32-.02-.65-.04-.97-.07,.5-.15,1.01-.28,1.52-.38,1.91-.42,3.63-.69,5.27-.83,3.51-.31,6.91-.22,10.1,.26,.48,.07,.95,.17,1.51,.28h.16c.07,0,.13,0,.16,0,1.02,.11,2.08,.31,3.25,.61,4.54,1.09,8.8,3.29,12.55,5.24l.54-.84c-2.74-2.16-5.84-4.6-9.32-6.42l-.3-.16c-2.2-1.13-4.2-1.96-6.25-2.6l.02-.15-.48-.09c-1.69-.31-3.43-.44-5.11-.56l-.99-.07c-2.78-.22-5.62-.36-8.36-.49l-2.35-.12c-.4-.02-.8-.04-1.2-.06,.99-.3,2.09-.57,3.36-.83,4.04-.83,8.3-1.06,12.29-.65,.91,.09,1.79,.23,2.71,.42l.54,.06v-.03c1.13,.14,2.24,.36,3.41,.67,4.44,1.1,8.59,3.37,12.25,5.37l.56-.82c-2.96-2.45-5.9-4.8-9.28-6.62h0l-.05-.03s-.04-.02-.06-.03l-.09-.05h0c-2.11-1.11-4.12-1.97-6.12-2.62l.02-.16-.47-.09c-1.8-.33-3.67-.42-5.47-.51l-.55-.03c-2.81-.15-5.68-.23-8.45-.3l-2.52-.07c-.42-.01-.85-.02-1.28-.04,1.12-.36,2.37-.69,3.83-1,4-.86,8.06-1.13,12.06-.82,.85,.07,1.74,.2,2.63,.38l.54,.06v-.04h.04l.2,.04c1.22,.22,2.24,.42,3.29,.71,4.21,1.08,8.12,3.32,11.96,5.51l.58-.81c-2.73-2.36-5.69-4.83-9.11-6.75-.03-.02-.06-.04-.09-.05-.01,0-.03-.02-.05-.03-.03-.02-.07-.04-.1-.05-2.16-1.18-4.14-2.04-6.21-2.7l.02-.17-.45-.08c-1.81-.34-3.74-.38-5.6-.41l-1.09-.02c-1.86-.05-3.71-.05-5.57-.06-1.88,0-3.76-.01-5.65-.06-.1,0-.2,0-.3,0,1.65-.55,3.39-1.01,5.16-1.36,4.09-.81,7.97-1.06,11.53-.74,.52,.05,1.07,.13,1.72,.25l.42,.02c.15,.03,.27,.05,.33,.06,1.17,.18,2.3,.43,3.46,.76,4.17,1.18,7.96,3.37,11.81,5.69l.59-.8c-3.13-2.83-5.86-5.09-8.97-6.91-.03-.02-.07-.04-.11-.06l-.59-.33h0c-2.04-1.11-3.95-1.94-5.96-2.57l.02-.17-.5-.05c-.26-.03-.53-.04-.8-.06-.4-.02-.78-.04-1.2-.12-2.06-.13-4.06-.14-5.74-.14-1.59,0-3.18,.04-4.76,.07-1.82,.04-3.69,.08-5.54,.07,.14-.04,.27-.09,.41-.13l.2-.06c1.78-.58,3.61-1.07,5.43-1.45,4.11-.85,7.82-1.12,11.03-.78,.41,.04,.81,.1,1.21,.17l.45,.04c.16,.03,.33,.05,.48,.06,1.03,.07,2.1,.39,3.13,.69l.12,.03c4.43,1.31,8.46,3.76,11.9,5.95l.61-.79c-2.64-2.49-5.54-5.07-8.89-7.09-.02-.01-.04-.02-.06-.04l-.29-.17c-1.2-.71-2.45-1.44-3.79-1.97-.79-.31-1.63-.6-2.65-.9v-.13l-.47-.06c-.56-.07-1.12-.09-1.67-.12l-.6-.03c-2.21-.12-4.47-.05-6.39,.03l-.46,.02c-2.07,.09-4.14,.17-6.2,.24-.83,.03-1.65,.05-2.48,.07,.67-.25,1.36-.47,2.05-.69,1.75-.55,3.62-1.02,5.73-1.42,4.01-.75,7.2-.92,10.06-.54,.2,.03,.41,.06,.61,.1l.15,.03c2.78,.36,5.3,1.11,7.5,2.23,2.5,1.19,5.05,2.68,8.02,4.68l.63-.77c-2.64-2.59-5.02-4.62-7.49-6.41-2.4-1.74-5.06-3.04-8.12-3.99v-.09l-.46-.04c-3.92-.35-7.87-.07-11.7,.2-2,.14-4.05,.29-6.09,.34,.24-.09,.48-.18,.72-.27,4.3-1.54,8.18-2.44,11.85-2.75,1.72-.14,3.86-.32,5.7,0l.48,.08,.09-.48c.27-1.36,.56-2.58,.85-3.62,1.19-4.21,3.63-3.68,7.02-2.95,.32,.07,.65,.14,.97,.21l2.97,.6-2.62-1.52c-1.59-.92-4.02-2.22-6.81-2.75-.78-.14-1.69-.23-2.78-.27h-.13c-1.58,.36-2.94,1.12-4.01,2.21,.29-.47,.62-.91,1.01-1.32l.86-.91-1.25,.07c-1.02,.05-1.96,.13-2.86,.22-.19,.02-.39,.05-.59,.07l-.4,.05-.1,.02c-1.22,.42-2.29,1.21-3.19,2.32,.16-.32,.33-.62,.52-.91l.85-1.19-1.19,.2c-1.4,.23-2.85,.51-4.31,.83l-.12,.04c-.95,.48-1.82,1.19-2.55,2.08,.12-.25,.26-.48,.4-.72l.65-1.05-1.2,.31c-1.45,.37-2.78,.75-4.04,1.15l-.12,.06c-.73,.48-1.36,1.12-1.9,1.83,.05-.12,.11-.23,.17-.34l.58-1.14-1.2,.45c-.86,.32-1.71,.66-2.51,1.01l-.34,.17c-.87,.63-1.6,1.38-2.2,2.17l.77-1.62-1.52,1.03c-.53,.36-.96,.71-1.31,1.06-1.15,1.21-2.19,2.78-3.08,4.66-.53,1.14-1.03,2.39-1.5,3.81l-.26,.77,.81-.12c1.64-.25,3.35-.48,5.25-.71-2.45,1.16-4.58,2.21-6.59,3.26l-.2,.1-.06,.21c-.23,.88-.45,1.76-.66,2.65l-.16,.7,.72-.09c1.9-.25,3.87-.47,6-.66-2.59,1.12-4.91,2.18-7.06,3.24l-.22,.11-.05,.24c-.17,.83-.34,1.68-.51,2.52l-.13,.67,.67-.07c2.04-.22,4.12-.4,6.34-.54-2.42,.95-4.63,1.88-6.69,2.83l-.47-1.49-.36,1.99c-.16,.88-.32,1.75-.48,2.63l-.12,.64,.65-.06c2.12-.19,4.27-.32,6.53-.38-2.45,.86-4.7,1.74-6.84,2.66l-.46-1.55-.93,5.32,.64-.04c2.15-.15,4.33-.22,6.63-.22h.02c-2.67,.85-5.13,1.73-7.46,2.69l-.26,.11-.58,3.45,.62-.03c2.2-.1,4.42-.12,6.75-.05-2.7,.76-5.17,1.57-7.52,2.48l-.27,.1-.05,.28c-.14,.86-.27,1.72-.41,2.58l-.09,.6,.61-.02c1.3-.05,2.82-.1,4.32-.04,.83,.04,1.66,.09,2.46,.15-.82,.19-1.6,.38-2.37,.58-1.77,.48-3.53,1.12-5.08,1.68l-.29,.1-.04,.3c-.12,.89-.24,1.78-.34,2.67l-.07,.57h.57c1.7-.05,3-.03,4.2,.04,.84,.06,1.67,.13,2.49,.22-.81,.16-1.62,.33-2.42,.52-1.54,.37-3.02,.84-4.77,1.43l-.31,.1-.03,.33c-.34,3.83-.57,8.32,.21,12.59,.45,2.3,1.19,4.24,2.21,5.74,.59,.89,1.15,1.62,1.93,2.53,.81,.91,1.53,1.61,2.23,2.22,1.82,1.59,3.96,3.01,6.39,4.2l.52-.85c-.72-.55-1.34-1.05-1.91-1.55-2.64-2.3-4.69-5.1-5.92-8.09-.52-1.26-.89-2.56-1.11-3.9,.33,1.1,.76,2.16,1.29,3.19,1.36,2.66,3.53,5.16,6.27,7.22,1.72,1.29,3.64,2.43,6.03,3.56l3.8,1.8-3.27-2.64Zm39.42-43.19c.23-1.94,.47-3.87,.71-5.81l.18-1.49c.34-2.78,.69-5.59,1.03-8.42-.47,6.85-1.27,14.28-2.48,23.1-.53,3.9-1.11,7.42-1.76,10.7,.88-6.03,1.61-12.14,2.33-18.06Zm-54.37,22.87c-.78,4.07-.43,7.93,1.03,11.47,.96,2.32,2.38,4.53,4.18,6.5-.59-.43-1.15-.88-1.68-1.35-.68-.58-1.36-1.26-2.14-2.13-.75-.86-1.28-1.56-1.85-2.42-.94-1.4-1.64-3.21-2.06-5.38-.74-4.02-.54-8.3-.23-11.99,1.59-.53,2.96-.96,4.37-1.3,1.52-.37,3.07-.66,4.65-.94,0,.07,0,.15,0,.22,.01,.96,.07,1.96,.19,3.17h1c.27-2.95,.75-5.93,1.21-8.81l.27-1.67c.66-4.15,1.34-8.59,1.94-13.02,.32-2.41,.63-4.82,.93-7.23,.75-5.99,1.53-12.19,2.63-18.24,.15-.81,.31-1.63,.47-2.44l.07-.39-.07-.02,.61-1.84c.61-1.85,1.73-4.32,3.6-5.58,.9-.28,1.83-.56,2.81-.82-.53,1.13-.87,2.37-1,3.66l-1.33,3.73c-2.71,7.61-3.93,15.77-4.85,22.83l-.17,1.3c-1.05,7.98-2.14,16.23-2.09,24.38,0,1.12,.07,2.28,.19,3.55h1c.1-1.12,.24-2.3,.45-3.8,1.59,.2,3.21,.33,4.78,.45,1.06,.08,2.13,.17,3.18,.27,4.01,.4,7.32,.83,10.44,1.36l.5,.12c3.02,.84,5.96,2.09,9,3.81,1.08,.61,2.14,1.28,3.18,1.97-2.4-1-4.89-1.91-7.43-2.55l-.52-.13-.14,.76c-.43,2.31-.87,4.71-1.12,7.1-.06,.61-.11,1.2-.12,1.76-.06-.54-.09-1.11-.12-1.71-.08-2.38,.02-4.81,.12-7.16l.04-1.04-.43-.08c-.89-.17-1.79-.29-2.7-.38l-.5-.05-.05,.5c-.6,5.82-.43,10.17,.57,14.11,1.23,4.85,5.42,9.06,9.4,11.76-1.14-.31-2.25-.72-3.32-1.21-2.73-1.25-5.26-3.32-7.31-5.96-1.97-2.54-3.53-5.41-4.62-8.54-.74-2.1-1.57-4.88-1.47-7.73l-.99-.12c-.62,3.09-.32,6.65,.94,10.89,1.19,4,3.06,7.5,5.55,10.4-.96-.53-1.87-1.13-2.74-1.81-2.91-2.28-5.32-5.45-6.97-9.16-1.56-3.51-2.27-6.8-2.11-9.78l-.99-.11c-.52,3.18-.14,6.79,1.13,10.73,1.22,3.78,3.17,7.19,5.69,9.94-.17-.1-.34-.2-.51-.3-1.27-.79-2.44-1.63-3.7-2.62-1.12-.88-2.07-2.04-2.99-3.16l-.18-.22c-2.54-3.07-3.78-6.81-4.37-9.42-.3-1.31-.43-2.72-.4-4.45l-.99-.09c-1.12,6.9,1.41,14.57,6.45,19.72-5.86-3.22-10.1-8.71-11.45-14.9-.27-1.22-.37-2.55-.33-4.31l-.99-.09c-1.11,6.51,1.09,13.44,5.78,18.36-.83-.5-1.59-1.02-2.32-1.57-2.62-1.97-4.69-4.35-5.98-6.88-1.5-2.93-2.16-6.14-2.03-9.81l-.99-.11Zm-2.31-9.37c.07-.59,.15-1.19,.23-1.78,1.46-.53,3.09-1.11,4.71-1.55,1.2-.32,2.41-.6,3.79-.9-.08,1.61-.13,3.21-.14,4.79-1.5-.18-3.19-.38-4.89-.5-.82-.05-1.68-.07-2.68-.07-.33,0-.67,0-1.02,0Zm1.82-11.98l.29-1.68c2.42-.98,4.97-1.89,7.77-2.76-.18,1.49-.35,2.97-.51,4.46-1.41-.06-2.78-.09-4.12-.09-1.16,0-2.29,.02-3.42,.07Zm9.41-34.13l.97,.21c.5-1.56,1.7-4.45,4.04-6.14l.24-.11c.44-.19,.88-.38,1.34-.56-.48,1.23-.8,2.62-.95,4.09l-.2,1.88-.32-.1c-.48,1.18-.95,2.43-1.38,3.71-2.57,.3-4.78,.59-6.84,.89,.38-1.07,.77-2.03,1.19-2.93,.75-1.6,1.62-2.96,2.56-4.03-.31,.99-.53,2.03-.64,3.09Zm-1.48,41.47l.03-.51c.12-1.9,.28-3.84,.47-5.75l.05-.47c.2-1.9,.42-3.79,.65-5.68l.07-.54c.18-1.41,.36-2.82,.54-4.23l.26-1.98c.27-2.05,.54-3.89,.83-5.61l.1-.59c.35-2.04,.73-3.91,1.15-5.73l.11-.49c.36-1.5,.75-2.95,1.16-4.35-.82,5-1.45,10.04-2.07,14.95-.3,2.41-.6,4.82-.93,7.22-.59,4.42-1.28,8.86-1.94,13l-.27,1.66c-.13,.79-.26,1.59-.38,2.39,.03-1.09,.07-2.2,.13-3.3Zm4.7-36.92c-.47,1.52-.91,3.12-1.31,4.76-2.44,.21-4.67,.44-6.8,.71,.14-.57,.28-1.14,.43-1.71,2.29-1.19,4.76-2.4,7.68-3.76Zm-9.09,9.92c2.23-1.09,4.65-2.2,7.37-3.36-.31,1.42-.6,2.88-.88,4.44-2.4,.13-4.64,.31-6.82,.53,.11-.54,.21-1.07,.32-1.61Zm-1.16,6.03c2.25-1.04,4.66-2.06,7.34-3.1-.22,1.36-.43,2.79-.64,4.35-2.44,.05-4.74,.17-6.99,.36,.1-.54,.19-1.07,.29-1.61Zm-1.06,5.98c2.34-1.02,4.81-1.98,7.53-2.93l-.08,.6c-.16,1.26-.33,2.53-.49,3.79-2.54-.02-4.91,.03-7.25,.17l.29-1.64Zm-2.03,11.94c2.5-.95,5.16-1.81,8.08-2.6-.15,1.52-.27,3.05-.37,4.56-1.28-.11-2.73-.23-4.18-.29-.5-.02-1-.03-1.49-.03-.8,0-1.58,.02-2.3,.05,.09-.56,.18-1.13,.27-1.69Zm30.2-48.71c-.78,1.46-1.25,3.18-1.39,5.11l-.27,3.84c-1.61,.42-3.27,.94-4.99,1.55-.69,.25-1.39,.52-2.08,.82,.03-.24,.07-.48,.11-.72,.07-.47,.14-.94,.2-1.41l.24-1.89-.15,3.03,1.19-4.24c.71-2.52,2.18-4.51,4.04-5.47,1.04-.23,2.08-.44,3.1-.62Zm4.58-.68c.19-.02,.38-.05,.56-.07,.54-.06,1.09-.1,1.66-.15-1.07,1.48-1.65,3.24-1.71,5.16l-.1,3.48c-2.07,.2-4.2,.58-6.42,1.15l1.03-3.61c.51-1.78,1.78-4.9,4.63-5.92l.35-.04Zm9.43-.08c1.1,.21,2.21,.56,3.39,1.06-2.43-.27-4.62,.28-5.7,4.11-.27,.95-.53,2.03-.77,3.23-1.84-.24-3.84-.07-5.47,.07-.08,0-.16,.01-.24,.02l.86-3.32c.74-2.83,2.69-4.8,5.36-5.42,1.01,.04,1.85,.12,2.57,.25Zm-3.41,12.93c3.09,.92,5.76,2.21,8.15,3.95,1.12,.81,2.22,1.67,3.34,2.62-1.19-.68-2.33-1.28-3.47-1.82-2.29-1.17-4.92-1.95-7.79-2.32l-.12-.02c-.22-.04-.44-.08-.66-.11-1.02-.13-2.08-.2-3.19-.2-2.13,0-4.48,.25-7.18,.75-2.15,.41-4.06,.88-5.84,1.45-.85,.27-1.68,.54-2.52,.87-.06,.02-.43,.18-.82,.36,.19-1.65,.39-3.29,.6-4.94,2.71,.02,5.41-.18,8.04-.36,3.76-.27,7.65-.54,11.46-.21Zm-9.8,6.62l.46-.02c1.89-.08,4.12-.14,6.29-.03l.61,.03c.4,.02,.81,.03,1.21,.07l.3,.09c1.16,.34,2.1,.65,2.96,.99,1.27,.5,2.48,1.21,3.66,1.9l.28,.17,.16-.15-.11,.18c1.67,1.01,3.23,2.17,4.71,3.38-2.33-1.3-4.85-2.48-7.53-3.27l-.12-.03c-1.08-.32-2.2-.65-3.32-.73-.25-.03-.54-.07-.81-.13l-.55-.07v.03c-.25-.04-.51-.07-.76-.1-3.31-.35-7.12-.08-11.34,.8-1.86,.39-3.72,.89-5.54,1.48l-.19,.06c-.45,.14-.93,.29-1.4,.49v-.04c.18-1.56,.36-3.12,.55-4.68,.28,0,.63-.02,1.07-.06,.13-.01,.23-.02,.29-.02,.97-.02,1.94-.05,2.92-.08,2.07-.07,4.14-.15,6.21-.24Zm-4.17,6.65c1.58-.03,3.16-.07,4.75-.07,1.67,0,3.64,0,5.62,.13,.42,.08,.85,.1,1.27,.12,.11,0,.22,.01,.33,.02l.32,.1c2.25,.68,4.36,1.6,6.67,2.9h0l.07,.04,.17-.16-.12,.2c1.66,.97,3.22,2.07,4.79,3.32-2.38-1.28-4.81-2.38-7.4-3.11-1.2-.34-2.37-.6-3.58-.79-.11-.02-.4-.07-.68-.14l-.59-.08v.05c-.46-.08-.87-.13-1.27-.17-3.66-.32-7.63-.07-11.81,.76-1.91,.38-3.77,.88-5.55,1.49-.16,.06-.37,.13-.58,.22,.19-1.59,.37-3.17,.56-4.76,.12,0,.26,0,.41,0,2.22,.04,4.46-.01,6.63-.06Zm5.07,6.58l1.09,.02c1.66,.03,3.37,.06,4.97,.32v.06l.39,.12c2.18,.67,4.25,1.56,6.52,2.8h0l.08,.05h0c1.72,.96,3.33,2.07,4.85,3.24-2.39-1.24-4.87-2.32-7.47-2.99-1.08-.3-2.12-.49-3.39-.73l-.21-.03c-.15-.02-.3-.04-.45-.06l-.03-.02h-.28c-.86-.16-1.71-.27-2.53-.34-4.1-.32-8.25-.04-12.34,.84-1.82,.39-3.33,.8-4.67,1.28,.21-1.57,.4-3.14,.6-4.72,.03,0,.05,0,.08,0h.11c.49,.02,.97,.03,1.45,.03,1.89,.05,3.78,.06,5.67,.06,1.85,0,3.7,.01,5.55,.06Zm-.22,6.68l.55,.03c1.61,.08,3.27,.17,4.87,.42v.05l.4,.12c2.11,.65,4.22,1.54,6.45,2.72h0l.1,.05h0c1.74,.93,3.36,2.02,4.93,3.18-2.44-1.2-5.02-2.29-7.74-2.96-1.27-.33-2.48-.57-3.7-.72-.13-.02-.22-.03-.29-.04l-.51-.05h0c-.78-.14-1.54-.25-2.31-.33-4.1-.42-8.45-.19-12.6,.67-1.68,.34-3.07,.71-4.29,1.12,.24-1.58,.46-3.17,.68-4.75,.07,0,.13,.01,.2,.02,.77,.05,1.55,.07,2.32,.09l2.52,.07c2.76,.08,5.62,.16,8.42,.3Zm-1.18,6.62l.99,.08c1.49,.11,3.03,.23,4.51,.46v.04l.42,.13c2.18,.65,4.29,1.52,6.64,2.74h0c1.79,.93,3.48,2.03,5.08,3.17-2.52-1.18-5.21-2.26-8.01-2.94-1.21-.31-2.32-.51-3.38-.63-.06,0-.15,0-.25-.01h-.06c-.49-.1-.98-.19-1.48-.27-3.27-.5-6.75-.59-10.34-.27-1.68,.15-3.45,.43-5.38,.85-.8,.15-1.58,.39-2.34,.62l-.11,.04s-.11,.03-.19,.04h-.03c.25-1.6,.5-3.21,.75-4.82,.19,.03,.36,.04,.39,.04,.71,.06,1.54,.09,2.25,.13l2.23,.12c2.73,.13,5.56,.27,8.33,.49Zm-5.55,6.21l.68,.05c3.05,.24,6.19,.5,9.24,1l.43,.12c2.21,.63,4.39,1.51,6.86,2.74h0c1.81,.9,3.54,1.99,5.21,3.15-2.57-1.14-5.26-2.16-8.08-2.88-1.32-.34-2.47-.54-3.5-.64l-.57-.06c-2.41-.44-5.39-.81-8.65-.81-3.47,0-7.25,.41-11.02,1.59,.19-1.24,.38-2.48,.58-3.71l.2-1.24c.37,.05,.74,.1,.79,.1,.57,.05,1.13,.09,1.7,.12l2.37,.17c1.25,.09,2.5,.18,3.75,.28Zm-5.93-28.09l-.16,1.4c-.24,2.07-.48,4.14-.73,6.21l-.08,.62c-.23,1.88-.47,3.75-.72,5.62l-.03,.23c-.27,2.04-.57,4.07-.87,6.11l-.03,.24c-.31,2.04-.62,4.07-.95,6.11l-.31,1.96c-.14,.86-.28,1.72-.41,2.58,.18-7.11,1.13-14.3,2.05-21.28l.17-1.3c.69-5.24,1.54-11.1,3.04-16.86-.11,.92-.22,1.84-.33,2.76l-.03,.28-.04,.37-.12,1.03h0c-.15,1.31-.3,2.63-.46,3.94Z"/><path class="c" d="M773.06,327.55c-.9-1.02-1.45-2.42-1.5-3.84-.05-1.57,.43-3.07,1.35-4.22,.87-1.09,1.98-1.79,3.72-2.35l1.78-.58-1.83-.39c-1.83-.38-3.65,.05-5.14,1.21-1.76,1.39-2.9,3.71-2.97,6.11,.17,2.4,1,4.29,2.48,5.62h0c1.25,1.13,2.79,1.72,4.35,1.72,.44,0,.89-.05,1.33-.15l1.83-.4-1.79-.56c-1.22-.38-2.6-.94-3.61-2.18Zm-1.44,.83c-1.3-1.17-2-2.79-2.15-4.9,.06-2.06,1.05-4.09,2.59-5.3,.49-.39,1.17-.79,2.02-1-.78,.46-1.41,1.02-1.95,1.69-1.07,1.34-1.62,3.07-1.56,4.88,.06,1.65,.7,3.28,1.73,4.45,.51,.63,1.12,1.11,1.74,1.49-.87-.22-1.7-.66-2.42-1.31Z"/><path class="c" d="M760.29,327.54v-9.12l-1-.06c-.85,6.68-1.29,14.11-1.39,23.38-.06,6.07-.09,12.13-.11,18.19-.01,2.92-.02,5.85-.04,8.77-.04,7.92,.01,16.36,.16,26.58,.04,2.54,.08,5.08,.13,7.61l.08,4.08c.02,1.32,.06,2.65,.09,3.97l.02,.79v.2c0,.18,0,.37,.02,.48,.02,.65,.53,1.14,1.19,1.14h.02c.67,0,1.18-.52,1.18-1.18l-.17-32.28c-.09-16.7-.17-34.52-.17-52.55Zm-.65,84.83s0,.17-.19,.17h0c-.19,0-.19-.13-.2-.23-.02-.12-.01-.25-.01-.38v-.23l-.02-.79c-.04-1.32-.07-2.64-.09-3.96l-.08-4.08c-.05-2.54-.1-5.07-.13-7.61v-.35c-.15-10.05-.2-18.39-.16-26.21,.02-2.92,.03-5.85,.04-8.77,.02-6.06,.05-12.12,.11-18.19,.05-4.45,.17-8.47,.38-12.19,0,17.35,.09,34.46,.17,50.55l.08,14.86,.09,17.41Z"/><path class="c" d="M776.84,352.94c-1.52,3.17-4.83,5.31-7.49,7.03l.47,.88c2.51-1.06,5.95-3.03,8.13-6.39,2.76-4.26,.17-9.2-1.62-11.77l-.86,.5c1.51,3.15,2.99,6.76,1.38,9.75Z"/><path class="c" d="M771.93,336.31l-.14-.49-.49,.15c-.13,.04-.28,.08-.42,.11l-.32,.08c-.26,.06-.54,.12-.82,.16l-.25,.05c-.37,.06-.75,.1-1.14,.13l.04,.5-.19-.49-.46,.04v23.69l.76-.46c3-1.81,6.02-3.82,7.73-6.29,2.14-3.1,.81-6.24-1.64-11.04-.95-1.87-2.03-3.98-2.66-6.16Zm-3.19,22.17v-21c.31-.03,.62-.07,.91-.12l.27-.05c.3-.05,.6-.11,.88-.18l.31-.08c.66,2.09,1.68,4.09,2.58,5.86,2.27,4.46,3.57,7.33,1.71,10.02-1.46,2.11-4.02,3.91-6.67,5.54Z"/></g></g><g id="b"/></svg>