<?xml version="1.0" encoding="UTF-8"?><svg xmlns="http://www.w3.org/2000/svg" viewBox="0 0 60 60"><defs><style>.c{fill:#fff;}.d{fill:#e42129;}.e{fill:none;}</style></defs><g id="a"/><g id="b"><g><circle class="d" cx="30" cy="30" r="22.5"/><g><path class="c" d="M35.31,25.88c0,1.93-.06,3.85,.01,5.78,.1,2.7-1.85,4.7-4.21,5.19-2.45,.51-4.96-.66-6.03-2.84-.33-.68-.46-1.4-.46-2.16,0-4.01,0-8.02,0-12.02,0-2.91,2.39-5.16,5.43-5.11,2.47,.04,4.54,1.59,5.11,3.85,.1,.41,.13,.85,.13,1.28,.01,2.01,0,4.02,0,6.03Z"/><path class="e" d="M27.71,45.27c-.17,0-.35,0-.52,0h.7c-.05,0-.11,0-.18,0Z"/><path class="e" d="M31.88,45.28s-.08,0-.12,0h2.4c-.76,0-1.52,0-2.28,0Z"/><path class="c" d="M38.71,26.16c0-.2-.1-.27-.29-.27-.41,0-.81,0-1.22,0-.5,0-.5,0-.5,.49,0,1.65,0,3.3,0,4.95-.01,1.86-.63,3.49-1.86,4.88-2.24,2.54-6.09,2.92-8.75,.83-1.9-1.49-2.77-3.48-2.77-5.88,0-1.63,0-3.25,0-4.88,0-.3-.09-.41-.39-.39-.41,.02-.81,.02-1.22,0-.32-.02-.41,.1-.41,.41,.01,1.71,0,3.42,0,5.13,.03,3.95,2.64,8.21,7.48,8.94,.26,.04,.33,.17,.33,.41,0,.68-.02,1.36,0,2.05,.01,.34-.1,.46-.45,.45-1.08-.02-2.15,0-3.23,0-.48,0-.48,0-.49,.47,0,.39,.01,.79,0,1.18-.01,.28,.08,.38,.37,.37,.4,0,.79,0,1.19,0h.7c.17,0,.35,0,.52,0,.07,0,.12,0,.18,0h3.86s.08,0,.12,0c.76,0,1.52,0,2.28,0h.62c.21-.02,.3-.12,.28-.4-.03-.41-.02-.81,0-1.22,.02-.32-.1-.41-.41-.41-1.03,.01-2.06,0-3.09,.01-.35,0-.49-.09-.48-.46,.03-.66,.02-1.32,0-1.97-.01-.32,.1-.43,.41-.53,.9-.27,1.85-.48,2.66-.94,2.52-1.44,4.07-3.68,4.4-6.54,.25-2.2,.12-4.44,.16-6.66Z"/></g></g></g></svg>