<?xml version="1.0" encoding="UTF-8"?><svg id="a" xmlns="http://www.w3.org/2000/svg" viewBox="0 0 81.76 122.74"><defs><style>.b,.c{fill:#fff;}.d{fill:#e42129;}.e{stroke:#e42129;stroke-miterlimit:10;}.e,.f{fill:none;}.c{font-family:Arial-BoldMT, Arial;font-size:14px;}</style></defs><g><circle class="d" cx="44.6" cy="48.82" r="29.8"/><circle class="e" cx="44.6" cy="48.82" r="34.17"/><g><path class="b" d="M51.63,43.36c0,2.55-.08,5.1,.02,7.65,.13,3.58-2.45,6.23-5.57,6.88-3.24,.67-6.57-.88-7.99-3.77-.44-.9-.61-1.86-.6-2.86,0-5.31,0-10.62,0-15.92,0-3.85,3.17-6.83,7.19-6.76,3.27,.05,6.02,2.11,6.77,5.1,.14,.55,.17,1.13,.18,1.69,.02,2.66,0,5.32,0,7.99Z"/><path class="f" d="M41.57,69.05c-.23,0-.46,0-.69,.01h.92c-.07,0-.15-.01-.23-.01Z"/><path class="f" d="M47.08,69.05c-.06,0-.11,0-.16,0h3.18c-1.01,0-2.01,0-3.02,0Z"/><path class="b" d="M56.14,43.73c0-.27-.13-.36-.38-.36-.54,0-1.08,0-1.62,0-.66,0-.66,0-.67,.65,0,2.19,0,4.37,0,6.56-.01,2.46-.84,4.62-2.47,6.47-2.97,3.37-8.06,3.87-11.59,1.09-2.51-1.97-3.67-4.61-3.68-7.79,0-2.15,0-4.31,0-6.46,0-.39-.12-.54-.52-.52-.54,.03-1.08,.03-1.62,0-.42-.02-.55,.13-.54,.54,.02,2.27,0,4.53,.01,6.8,.03,5.23,3.49,10.87,9.91,11.83,.35,.05,.44,.22,.43,.54-.01,.9-.02,1.81,0,2.71,.01,.46-.14,.61-.59,.6-1.43-.02-2.85,0-4.28,0-.64,0-.64,0-.64,.62,0,.52,.02,1.05,0,1.57-.02,.37,.1,.5,.49,.49,.52-.01,1.05,0,1.57,0h.92c.23,0,.46,0,.69-.01,.09,0,.16,0,.23,.01h5.12c.05,0,.11,0,.16,0,1.01,0,2.01,0,3.02,0h.82c.28-.03,.4-.16,.37-.52-.03-.54-.03-1.08,0-1.62,.02-.42-.13-.55-.54-.54-1.36,.02-2.73,0-4.09,.02-.46,0-.65-.11-.63-.61,.04-.87,.03-1.74,0-2.61-.01-.42,.13-.57,.55-.7,1.19-.36,2.45-.64,3.52-1.25,3.34-1.91,5.39-4.87,5.82-8.67,.33-2.91,.16-5.88,.21-8.83Z"/></g></g><text class="c" transform="translate(20.48 105.01)"><tspan x="0" y="0">Record</tspan></text></svg>