<?xml version="1.0" encoding="UTF-8"?><svg xmlns="http://www.w3.org/2000/svg" viewBox="0 0 899 624"><defs><style>.c{fill:#fff;}.d{fill:none;stroke:#000;stroke-miterlimit:10;}</style></defs><g id="a"><g><path class="c" d="M0,0V147.37c2.58-4.57,5.95-9.15,10.36-13.31,13.69-12.93,33.65-18.67,59.32-17.08H440.43v0l15.21,.04h370.78c25.4,1.59,45.11-4.07,58.59-16.79,6.95-6.56,11.28-14.16,13.99-21.1V0H0Z"/><path d="M885.01,100.22c-13.48,12.73-33.19,18.38-58.59,16.79H455.64l-15.21-.04v0H69.67c-25.66-1.59-45.62,4.15-59.32,17.08-4.41,4.16-7.77,8.74-10.36,13.31v476.63H899V79.12c-2.71,6.94-7.05,14.55-13.99,21.1Z"/></g><rect class="d" x="97.4" y="161.72" width="680.74" height="160.35"/></g><g id="b"/></svg>