<?xml version="1.0" encoding="UTF-8"?><svg id="a" xmlns="http://www.w3.org/2000/svg" viewBox="0 0 899 624"><defs><style>.b{font-size:45px;}.b,.c{font-family:TimesNewRomanPSMT, Times New Roman;}.c,.d{fill:#fff;}.e{fill:#e42129;}.f{fill:none;stroke:#000;stroke-miterlimit:10;}.g{letter-spacing:-.1em;}.h{font-size:23px;}.i{font-size:53px;}.j{letter-spacing:-.08em;}</style></defs><g><path class="d" d="M0,0V147.37c2.58-4.57,5.95-9.15,10.36-13.31,13.69-12.93,33.65-18.67,59.32-17.08H440.43v0l15.21,.04h370.78c25.4,1.59,45.11-4.07,58.59-16.79,6.95-6.56,11.28-14.16,13.99-21.1V0H0Z"/><path d="M885.01,100.22c-13.48,12.73-33.19,18.38-58.59,16.79H455.64l-15.21-.04v0H69.67c-25.66-1.59-45.62,4.15-59.32,17.08-4.41,4.16-7.77,8.74-10.36,13.31v476.63H899V79.12c-2.71,6.94-7.05,14.55-13.99,21.1Z"/></g><text class="b" transform="translate(56.4 78.3)"><tspan x="0" y="0">My </tspan><tspan class="e" x="73.76" y="0">excellent</tspan><tspan x="236.16" y="0" xml:space="preserve"> moment</tspan></text><text class="c" transform="translate(328.8 235.33)"><tspan class="i"><tspan x="0" y="0">Thank you.</tspan></tspan><tspan class="h"><tspan class="g" x="-39.41" y="72">Y</tspan><tspan x="-25.11" y="72">our recording has been uploaded.</tspan></tspan><tspan class="h"><tspan class="j" x="-162.28" y="108">W</tspan><tspan x="-142.41" y="108">e look forward to sharing your excellent moment and many </tspan></tspan><tspan class="h"><tspan x="-128.7" y="144">others during excellence week starting on January XX</tspan></tspan></text><rect class="f" x="97.4" y="161.72" width="680.74" height="160.35"/></svg>